M48
; DRILL file {KiCad 8.0.8} date 2025-02-06T19:54:39+0000
; FORMAT={-:-/ absolute / metric / decimal}
; #@! TF.CreationDate,2025-02-06T19:54:39+00:00
; #@! TF.GenerationSoftware,Kicad,Pcbnew,8.0.8
; #@! TF.FileFunction,Plated,1,4,PTH
FMAT,2
METRIC
; #@! TA.AperFunction,Plated,PTH,ViaDrill
T1C0.700
; #@! TA.AperFunction,Plated,PTH,ComponentDrill
T2C0.900
; #@! TA.AperFunction,Plated,PTH,ComponentDrill
T3C0.950
; #@! TA.AperFunction,Plated,PTH,ComponentDrill
T4C1.000
; #@! TA.AperFunction,Plated,PTH,ComponentDrill
T5C1.600
; #@! TA.AperFunction,Plated,PTH,ComponentDrill
T6C2.000
%
G90
G05
T1
X58.705Y-52.889
X61.0Y-52.0
X68.5Y-32.65
X71.0Y-87.5
X71.0Y-93.5
X71.0Y-99.5
X71.0Y-105.5
X72.0Y-85.35
X73.0Y-97.5
X86.5Y-84.5
X86.5Y-90.0
X86.5Y-101.0
X89.0Y-35.0
X89.175Y-72.5
X89.5Y-104.5
X91.5Y-72.0
X91.525Y-78.0
X94.5Y-35.0
X96.5Y-62.912
T2
X92.5Y-43.0
X94.5Y-43.0
X95.66Y-90.555
X95.66Y-93.095
X95.66Y-95.635
X95.66Y-98.175
X96.5Y-43.0
X98.2Y-91.825
X98.2Y-94.365
X98.2Y-96.905
X98.2Y-99.445
X98.5Y-43.0
X100.5Y-43.0
T3
X107.5Y-71.5
X107.5Y-74.0
X107.5Y-76.5
X107.5Y-79.0
T4
X19.5Y-75.25
X19.5Y-79.75
X19.5Y-87.75
X19.5Y-92.25
X19.5Y-100.25
X19.5Y-104.75
X22.66Y-43.0
X22.66Y-58.24
X25.2Y-43.0
X25.2Y-58.24
X26.0Y-75.25
X26.0Y-79.75
X26.0Y-87.75
X26.0Y-92.25
X26.0Y-100.25
X26.0Y-104.75
X27.74Y-43.0
X27.74Y-58.24
X30.28Y-43.0
X30.28Y-58.24
X32.82Y-43.0
X32.82Y-58.24
X35.36Y-43.0
X35.36Y-58.24
X35.75Y-75.25
X35.75Y-79.75
X35.75Y-87.75
X35.75Y-92.25
X35.75Y-100.25
X35.75Y-104.75
X37.9Y-43.0
X37.9Y-58.24
X39.126Y-39.065
X39.126Y-61.925
X40.44Y-43.0
X40.44Y-58.24
X41.666Y-39.065
X41.666Y-61.925
X42.25Y-75.25
X42.25Y-79.75
X42.25Y-87.75
X42.25Y-92.25
X42.25Y-100.25
X42.25Y-104.75
X42.98Y-43.0
X42.98Y-58.24
X44.206Y-39.065
X44.206Y-61.925
X45.52Y-43.0
X45.52Y-58.24
X46.746Y-39.065
X46.746Y-61.925
X48.06Y-43.0
X48.06Y-58.24
X49.286Y-39.065
X49.286Y-61.925
X50.42Y-33.5
X50.6Y-43.0
X50.6Y-58.24
X51.826Y-39.065
X51.826Y-61.925
X52.0Y-75.25
X52.0Y-79.75
X52.0Y-87.75
X52.0Y-92.25
X52.0Y-100.25
X52.0Y-104.75
X52.96Y-33.5
X53.14Y-43.0
X53.14Y-58.24
X54.366Y-39.065
X54.366Y-61.925
X55.5Y-33.5
X55.68Y-43.0
X55.68Y-58.24
X56.906Y-39.065
X56.906Y-61.925
X58.04Y-33.5
X58.22Y-43.0
X58.22Y-58.24
X58.5Y-75.25
X58.5Y-79.75
X58.5Y-87.75
X58.5Y-92.25
X58.5Y-100.25
X58.5Y-104.75
X59.446Y-39.065
X59.446Y-61.925
X60.76Y-43.0
X60.76Y-58.24
X61.986Y-39.065
X61.986Y-61.925
X63.3Y-43.0
X63.3Y-58.24
X64.526Y-39.065
X64.526Y-61.925
X65.84Y-43.0
X65.84Y-58.24
X67.066Y-39.065
X67.066Y-61.925
X68.38Y-43.0
X68.38Y-58.24
X70.92Y-43.0
X70.92Y-58.24
X73.25Y-72.25
X73.25Y-76.75
X73.46Y-43.0
X73.46Y-58.24
X76.0Y-43.0
X76.0Y-58.24
X78.54Y-43.0
X78.54Y-58.24
X79.75Y-72.25
X79.75Y-76.75
X81.08Y-43.0
X81.08Y-58.24
X94.0Y-57.5
X96.5Y-57.5
X99.0Y-57.5
T5
X74.42Y-30.0
X79.5Y-30.0
X107.6Y-87.15
X107.6Y-102.85
T6
X90.9Y-50.0
X102.1Y-50.0
M30
