%TF.GenerationSoftware,KiCad,Pcbnew,8.0.8*%
%TF.CreationDate,2025-02-06T19:54:42+00:00*%
%TF.ProjectId,TeensyELS,5465656e-7379-4454-9c53-2e6b69636164,rev?*%
%TF.SameCoordinates,Original*%
%TF.FileFunction,Drillmap*%
%TF.FilePolarity,Positive*%
%FSLAX45Y45*%
G04 Gerber Fmt 4.5, Leading zero omitted, Abs format (unit mm)*
G04 Created by KiCad (PCBNEW 8.0.8) date 2025-02-06 19:54:42*
%MOMM*%
%LPD*%
G01*
G04 APERTURE LIST*
%ADD10C,0.050000*%
%ADD11C,0.200000*%
%ADD12C,0.100000*%
%ADD13C,0.160000*%
G04 APERTURE END LIST*
D10*
X11300000Y-2400000D02*
X1700000Y-2400000D01*
X11300000Y-10900000D02*
X11300000Y-2400000D01*
X1700000Y-2400000D02*
X1700000Y-10900000D01*
X1700000Y-10900000D02*
X11300000Y-10900000D01*
D11*
D12*
X5835490Y-5253853D02*
X5905490Y-5323853D01*
X5905490Y-5253853D02*
X5835490Y-5323853D01*
X6065000Y-5165000D02*
X6135000Y-5235000D01*
X6135000Y-5165000D02*
X6065000Y-5235000D01*
X6815000Y-3230000D02*
X6885000Y-3300000D01*
X6885000Y-3230000D02*
X6815000Y-3300000D01*
X7065000Y-8715000D02*
X7135000Y-8785000D01*
X7135000Y-8715000D02*
X7065000Y-8785000D01*
X7065000Y-9315000D02*
X7135000Y-9385000D01*
X7135000Y-9315000D02*
X7065000Y-9385000D01*
X7065000Y-9915000D02*
X7135000Y-9985000D01*
X7135000Y-9915000D02*
X7065000Y-9985000D01*
X7065000Y-10515000D02*
X7135000Y-10585000D01*
X7135000Y-10515000D02*
X7065000Y-10585000D01*
X7165000Y-8500000D02*
X7235000Y-8570000D01*
X7235000Y-8500000D02*
X7165000Y-8570000D01*
X7265000Y-9715000D02*
X7335000Y-9785000D01*
X7335000Y-9715000D02*
X7265000Y-9785000D01*
X8615000Y-8415000D02*
X8685000Y-8485000D01*
X8685000Y-8415000D02*
X8615000Y-8485000D01*
X8615000Y-8965000D02*
X8685000Y-9035000D01*
X8685000Y-8965000D02*
X8615000Y-9035000D01*
X8615000Y-10065000D02*
X8685000Y-10135000D01*
X8685000Y-10065000D02*
X8615000Y-10135000D01*
X8865000Y-3465000D02*
X8935000Y-3535000D01*
X8935000Y-3465000D02*
X8865000Y-3535000D01*
X8882500Y-7215000D02*
X8952500Y-7285000D01*
X8952500Y-7215000D02*
X8882500Y-7285000D01*
X8915000Y-10415000D02*
X8985000Y-10485000D01*
X8985000Y-10415000D02*
X8915000Y-10485000D01*
X9115000Y-7165000D02*
X9185000Y-7235000D01*
X9185000Y-7165000D02*
X9115000Y-7235000D01*
X9117500Y-7765000D02*
X9187500Y-7835000D01*
X9187500Y-7765000D02*
X9117500Y-7835000D01*
X9415000Y-3465000D02*
X9485000Y-3535000D01*
X9485000Y-3465000D02*
X9415000Y-3535000D01*
X9615000Y-6256250D02*
X9685000Y-6326250D01*
X9685000Y-6256250D02*
X9615000Y-6326250D01*
X9295000Y-4300000D02*
G75*
G02*
X9205000Y-4300000I-45000J0D01*
G01*
X9205000Y-4300000D02*
G75*
G02*
X9295000Y-4300000I45000J0D01*
G01*
X9495000Y-4300000D02*
G75*
G02*
X9405000Y-4300000I-45000J0D01*
G01*
X9405000Y-4300000D02*
G75*
G02*
X9495000Y-4300000I45000J0D01*
G01*
X9611000Y-9055500D02*
G75*
G02*
X9521000Y-9055500I-45000J0D01*
G01*
X9521000Y-9055500D02*
G75*
G02*
X9611000Y-9055500I45000J0D01*
G01*
X9611000Y-9309500D02*
G75*
G02*
X9521000Y-9309500I-45000J0D01*
G01*
X9521000Y-9309500D02*
G75*
G02*
X9611000Y-9309500I45000J0D01*
G01*
X9611000Y-9563500D02*
G75*
G02*
X9521000Y-9563500I-45000J0D01*
G01*
X9521000Y-9563500D02*
G75*
G02*
X9611000Y-9563500I45000J0D01*
G01*
X9611000Y-9817500D02*
G75*
G02*
X9521000Y-9817500I-45000J0D01*
G01*
X9521000Y-9817500D02*
G75*
G02*
X9611000Y-9817500I45000J0D01*
G01*
X9695000Y-4300000D02*
G75*
G02*
X9605000Y-4300000I-45000J0D01*
G01*
X9605000Y-4300000D02*
G75*
G02*
X9695000Y-4300000I45000J0D01*
G01*
X9865000Y-9182500D02*
G75*
G02*
X9775000Y-9182500I-45000J0D01*
G01*
X9775000Y-9182500D02*
G75*
G02*
X9865000Y-9182500I45000J0D01*
G01*
X9865000Y-9436500D02*
G75*
G02*
X9775000Y-9436500I-45000J0D01*
G01*
X9775000Y-9436500D02*
G75*
G02*
X9865000Y-9436500I45000J0D01*
G01*
X9865000Y-9690500D02*
G75*
G02*
X9775000Y-9690500I-45000J0D01*
G01*
X9775000Y-9690500D02*
G75*
G02*
X9865000Y-9690500I45000J0D01*
G01*
X9865000Y-9944500D02*
G75*
G02*
X9775000Y-9944500I-45000J0D01*
G01*
X9775000Y-9944500D02*
G75*
G02*
X9865000Y-9944500I45000J0D01*
G01*
X9895000Y-4300000D02*
G75*
G02*
X9805000Y-4300000I-45000J0D01*
G01*
X9805000Y-4300000D02*
G75*
G02*
X9895000Y-4300000I45000J0D01*
G01*
X10095000Y-4300000D02*
G75*
G02*
X10005000Y-4300000I-45000J0D01*
G01*
X10005000Y-4300000D02*
G75*
G02*
X10095000Y-4300000I45000J0D01*
G01*
X10750000Y-7102500D02*
X10750000Y-7197500D01*
X10702500Y-7150000D02*
X10797500Y-7150000D01*
X10750000Y-7352500D02*
X10750000Y-7447500D01*
X10702500Y-7400000D02*
X10797500Y-7400000D01*
X10750000Y-7602500D02*
X10750000Y-7697500D01*
X10702500Y-7650000D02*
X10797500Y-7650000D01*
X10750000Y-7852500D02*
X10750000Y-7947500D01*
X10702500Y-7900000D02*
X10797500Y-7900000D01*
X1985356Y-7560356D02*
X1985356Y-7489644D01*
X1914644Y-7489644D01*
X1914644Y-7560356D01*
X1985356Y-7560356D01*
X1985356Y-8010356D02*
X1985356Y-7939644D01*
X1914644Y-7939644D01*
X1914644Y-8010356D01*
X1985356Y-8010356D01*
X1985356Y-8810356D02*
X1985356Y-8739644D01*
X1914644Y-8739644D01*
X1914644Y-8810356D01*
X1985356Y-8810356D01*
X1985356Y-9260356D02*
X1985356Y-9189644D01*
X1914644Y-9189644D01*
X1914644Y-9260356D01*
X1985356Y-9260356D01*
X1985356Y-10060356D02*
X1985356Y-9989644D01*
X1914644Y-9989644D01*
X1914644Y-10060356D01*
X1985356Y-10060356D01*
X1985356Y-10510356D02*
X1985356Y-10439644D01*
X1914644Y-10439644D01*
X1914644Y-10510356D01*
X1985356Y-10510356D01*
X2301356Y-4335356D02*
X2301356Y-4264644D01*
X2230644Y-4264644D01*
X2230644Y-4335356D01*
X2301356Y-4335356D01*
X2301356Y-5859356D02*
X2301356Y-5788644D01*
X2230644Y-5788644D01*
X2230644Y-5859356D01*
X2301356Y-5859356D01*
X2555356Y-4335356D02*
X2555356Y-4264644D01*
X2484644Y-4264644D01*
X2484644Y-4335356D01*
X2555356Y-4335356D01*
X2555356Y-5859356D02*
X2555356Y-5788644D01*
X2484644Y-5788644D01*
X2484644Y-5859356D01*
X2555356Y-5859356D01*
X2635356Y-7560356D02*
X2635356Y-7489644D01*
X2564644Y-7489644D01*
X2564644Y-7560356D01*
X2635356Y-7560356D01*
X2635356Y-8010356D02*
X2635356Y-7939644D01*
X2564644Y-7939644D01*
X2564644Y-8010356D01*
X2635356Y-8010356D01*
X2635356Y-8810356D02*
X2635356Y-8739644D01*
X2564644Y-8739644D01*
X2564644Y-8810356D01*
X2635356Y-8810356D01*
X2635356Y-9260356D02*
X2635356Y-9189644D01*
X2564644Y-9189644D01*
X2564644Y-9260356D01*
X2635356Y-9260356D01*
X2635356Y-10060356D02*
X2635356Y-9989644D01*
X2564644Y-9989644D01*
X2564644Y-10060356D01*
X2635356Y-10060356D01*
X2635356Y-10510356D02*
X2635356Y-10439644D01*
X2564644Y-10439644D01*
X2564644Y-10510356D01*
X2635356Y-10510356D01*
X2809356Y-4335356D02*
X2809356Y-4264644D01*
X2738644Y-4264644D01*
X2738644Y-4335356D01*
X2809356Y-4335356D01*
X2809356Y-5859356D02*
X2809356Y-5788644D01*
X2738644Y-5788644D01*
X2738644Y-5859356D01*
X2809356Y-5859356D01*
X3063356Y-4335356D02*
X3063356Y-4264644D01*
X2992644Y-4264644D01*
X2992644Y-4335356D01*
X3063356Y-4335356D01*
X3063356Y-5859356D02*
X3063356Y-5788644D01*
X2992644Y-5788644D01*
X2992644Y-5859356D01*
X3063356Y-5859356D01*
X3317356Y-4335356D02*
X3317356Y-4264644D01*
X3246644Y-4264644D01*
X3246644Y-4335356D01*
X3317356Y-4335356D01*
X3317356Y-5859356D02*
X3317356Y-5788644D01*
X3246644Y-5788644D01*
X3246644Y-5859356D01*
X3317356Y-5859356D01*
X3571356Y-4335356D02*
X3571356Y-4264644D01*
X3500644Y-4264644D01*
X3500644Y-4335356D01*
X3571356Y-4335356D01*
X3571356Y-5859356D02*
X3571356Y-5788644D01*
X3500644Y-5788644D01*
X3500644Y-5859356D01*
X3571356Y-5859356D01*
X3610356Y-7560356D02*
X3610356Y-7489644D01*
X3539644Y-7489644D01*
X3539644Y-7560356D01*
X3610356Y-7560356D01*
X3610356Y-8010356D02*
X3610356Y-7939644D01*
X3539644Y-7939644D01*
X3539644Y-8010356D01*
X3610356Y-8010356D01*
X3610356Y-8810356D02*
X3610356Y-8739644D01*
X3539644Y-8739644D01*
X3539644Y-8810356D01*
X3610356Y-8810356D01*
X3610356Y-9260356D02*
X3610356Y-9189644D01*
X3539644Y-9189644D01*
X3539644Y-9260356D01*
X3610356Y-9260356D01*
X3610356Y-10060356D02*
X3610356Y-9989644D01*
X3539644Y-9989644D01*
X3539644Y-10060356D01*
X3610356Y-10060356D01*
X3610356Y-10510356D02*
X3610356Y-10439644D01*
X3539644Y-10439644D01*
X3539644Y-10510356D01*
X3610356Y-10510356D01*
X3825356Y-4335356D02*
X3825356Y-4264644D01*
X3754644Y-4264644D01*
X3754644Y-4335356D01*
X3825356Y-4335356D01*
X3825356Y-5859356D02*
X3825356Y-5788644D01*
X3754644Y-5788644D01*
X3754644Y-5859356D01*
X3825356Y-5859356D01*
X3947924Y-3941850D02*
X3947924Y-3871138D01*
X3877213Y-3871138D01*
X3877213Y-3941850D01*
X3947924Y-3941850D01*
X3947924Y-6227850D02*
X3947924Y-6157138D01*
X3877213Y-6157138D01*
X3877213Y-6227850D01*
X3947924Y-6227850D01*
X4079356Y-4335356D02*
X4079356Y-4264644D01*
X4008644Y-4264644D01*
X4008644Y-4335356D01*
X4079356Y-4335356D01*
X4079356Y-5859356D02*
X4079356Y-5788644D01*
X4008644Y-5788644D01*
X4008644Y-5859356D01*
X4079356Y-5859356D01*
X4201924Y-3941850D02*
X4201924Y-3871138D01*
X4131213Y-3871138D01*
X4131213Y-3941850D01*
X4201924Y-3941850D01*
X4201924Y-6227850D02*
X4201924Y-6157138D01*
X4131213Y-6157138D01*
X4131213Y-6227850D01*
X4201924Y-6227850D01*
X4260356Y-7560356D02*
X4260356Y-7489644D01*
X4189644Y-7489644D01*
X4189644Y-7560356D01*
X4260356Y-7560356D01*
X4260356Y-8010356D02*
X4260356Y-7939644D01*
X4189644Y-7939644D01*
X4189644Y-8010356D01*
X4260356Y-8010356D01*
X4260356Y-8810356D02*
X4260356Y-8739644D01*
X4189644Y-8739644D01*
X4189644Y-8810356D01*
X4260356Y-8810356D01*
X4260356Y-9260356D02*
X4260356Y-9189644D01*
X4189644Y-9189644D01*
X4189644Y-9260356D01*
X4260356Y-9260356D01*
X4260356Y-10060356D02*
X4260356Y-9989644D01*
X4189644Y-9989644D01*
X4189644Y-10060356D01*
X4260356Y-10060356D01*
X4260356Y-10510356D02*
X4260356Y-10439644D01*
X4189644Y-10439644D01*
X4189644Y-10510356D01*
X4260356Y-10510356D01*
X4333356Y-4335356D02*
X4333356Y-4264644D01*
X4262644Y-4264644D01*
X4262644Y-4335356D01*
X4333356Y-4335356D01*
X4333356Y-5859356D02*
X4333356Y-5788644D01*
X4262644Y-5788644D01*
X4262644Y-5859356D01*
X4333356Y-5859356D01*
X4455924Y-3941850D02*
X4455924Y-3871138D01*
X4385213Y-3871138D01*
X4385213Y-3941850D01*
X4455924Y-3941850D01*
X4455924Y-6227850D02*
X4455924Y-6157138D01*
X4385213Y-6157138D01*
X4385213Y-6227850D01*
X4455924Y-6227850D01*
X4587356Y-4335356D02*
X4587356Y-4264644D01*
X4516644Y-4264644D01*
X4516644Y-4335356D01*
X4587356Y-4335356D01*
X4587356Y-5859356D02*
X4587356Y-5788644D01*
X4516644Y-5788644D01*
X4516644Y-5859356D01*
X4587356Y-5859356D01*
X4709924Y-3941850D02*
X4709924Y-3871138D01*
X4639213Y-3871138D01*
X4639213Y-3941850D01*
X4709924Y-3941850D01*
X4709924Y-6227850D02*
X4709924Y-6157138D01*
X4639213Y-6157138D01*
X4639213Y-6227850D01*
X4709924Y-6227850D01*
X4841356Y-4335356D02*
X4841356Y-4264644D01*
X4770644Y-4264644D01*
X4770644Y-4335356D01*
X4841356Y-4335356D01*
X4841356Y-5859356D02*
X4841356Y-5788644D01*
X4770644Y-5788644D01*
X4770644Y-5859356D01*
X4841356Y-5859356D01*
X4963924Y-3941850D02*
X4963924Y-3871138D01*
X4893213Y-3871138D01*
X4893213Y-3941850D01*
X4963924Y-3941850D01*
X4963924Y-6227850D02*
X4963924Y-6157138D01*
X4893213Y-6157138D01*
X4893213Y-6227850D01*
X4963924Y-6227850D01*
X5077356Y-3385356D02*
X5077356Y-3314644D01*
X5006644Y-3314644D01*
X5006644Y-3385356D01*
X5077356Y-3385356D01*
X5095356Y-4335356D02*
X5095356Y-4264644D01*
X5024644Y-4264644D01*
X5024644Y-4335356D01*
X5095356Y-4335356D01*
X5095356Y-5859356D02*
X5095356Y-5788644D01*
X5024644Y-5788644D01*
X5024644Y-5859356D01*
X5095356Y-5859356D01*
X5217924Y-3941850D02*
X5217924Y-3871138D01*
X5147213Y-3871138D01*
X5147213Y-3941850D01*
X5217924Y-3941850D01*
X5217924Y-6227850D02*
X5217924Y-6157138D01*
X5147213Y-6157138D01*
X5147213Y-6227850D01*
X5217924Y-6227850D01*
X5235356Y-7560356D02*
X5235356Y-7489644D01*
X5164644Y-7489644D01*
X5164644Y-7560356D01*
X5235356Y-7560356D01*
X5235356Y-8010356D02*
X5235356Y-7939644D01*
X5164644Y-7939644D01*
X5164644Y-8010356D01*
X5235356Y-8010356D01*
X5235356Y-8810356D02*
X5235356Y-8739644D01*
X5164644Y-8739644D01*
X5164644Y-8810356D01*
X5235356Y-8810356D01*
X5235356Y-9260356D02*
X5235356Y-9189644D01*
X5164644Y-9189644D01*
X5164644Y-9260356D01*
X5235356Y-9260356D01*
X5235356Y-10060356D02*
X5235356Y-9989644D01*
X5164644Y-9989644D01*
X5164644Y-10060356D01*
X5235356Y-10060356D01*
X5235356Y-10510356D02*
X5235356Y-10439644D01*
X5164644Y-10439644D01*
X5164644Y-10510356D01*
X5235356Y-10510356D01*
X5331356Y-3385356D02*
X5331356Y-3314644D01*
X5260644Y-3314644D01*
X5260644Y-3385356D01*
X5331356Y-3385356D01*
X5349356Y-4335356D02*
X5349356Y-4264644D01*
X5278644Y-4264644D01*
X5278644Y-4335356D01*
X5349356Y-4335356D01*
X5349356Y-5859356D02*
X5349356Y-5788644D01*
X5278644Y-5788644D01*
X5278644Y-5859356D01*
X5349356Y-5859356D01*
X5471924Y-3941850D02*
X5471924Y-3871138D01*
X5401213Y-3871138D01*
X5401213Y-3941850D01*
X5471924Y-3941850D01*
X5471924Y-6227850D02*
X5471924Y-6157138D01*
X5401213Y-6157138D01*
X5401213Y-6227850D01*
X5471924Y-6227850D01*
X5585356Y-3385356D02*
X5585356Y-3314644D01*
X5514644Y-3314644D01*
X5514644Y-3385356D01*
X5585356Y-3385356D01*
X5603356Y-4335356D02*
X5603356Y-4264644D01*
X5532644Y-4264644D01*
X5532644Y-4335356D01*
X5603356Y-4335356D01*
X5603356Y-5859356D02*
X5603356Y-5788644D01*
X5532644Y-5788644D01*
X5532644Y-5859356D01*
X5603356Y-5859356D01*
X5725924Y-3941850D02*
X5725924Y-3871138D01*
X5655213Y-3871138D01*
X5655213Y-3941850D01*
X5725924Y-3941850D01*
X5725924Y-6227850D02*
X5725924Y-6157138D01*
X5655213Y-6157138D01*
X5655213Y-6227850D01*
X5725924Y-6227850D01*
X5839356Y-3385356D02*
X5839356Y-3314644D01*
X5768644Y-3314644D01*
X5768644Y-3385356D01*
X5839356Y-3385356D01*
X5857356Y-4335356D02*
X5857356Y-4264644D01*
X5786644Y-4264644D01*
X5786644Y-4335356D01*
X5857356Y-4335356D01*
X5857356Y-5859356D02*
X5857356Y-5788644D01*
X5786644Y-5788644D01*
X5786644Y-5859356D01*
X5857356Y-5859356D01*
X5885356Y-7560356D02*
X5885356Y-7489644D01*
X5814644Y-7489644D01*
X5814644Y-7560356D01*
X5885356Y-7560356D01*
X5885356Y-8010356D02*
X5885356Y-7939644D01*
X5814644Y-7939644D01*
X5814644Y-8010356D01*
X5885356Y-8010356D01*
X5885356Y-8810356D02*
X5885356Y-8739644D01*
X5814644Y-8739644D01*
X5814644Y-8810356D01*
X5885356Y-8810356D01*
X5885356Y-9260356D02*
X5885356Y-9189644D01*
X5814644Y-9189644D01*
X5814644Y-9260356D01*
X5885356Y-9260356D01*
X5885356Y-10060356D02*
X5885356Y-9989644D01*
X5814644Y-9989644D01*
X5814644Y-10060356D01*
X5885356Y-10060356D01*
X5885356Y-10510356D02*
X5885356Y-10439644D01*
X5814644Y-10439644D01*
X5814644Y-10510356D01*
X5885356Y-10510356D01*
X5979924Y-3941850D02*
X5979924Y-3871138D01*
X5909213Y-3871138D01*
X5909213Y-3941850D01*
X5979924Y-3941850D01*
X5979924Y-6227850D02*
X5979924Y-6157138D01*
X5909213Y-6157138D01*
X5909213Y-6227850D01*
X5979924Y-6227850D01*
X6111356Y-4335356D02*
X6111356Y-4264644D01*
X6040644Y-4264644D01*
X6040644Y-4335356D01*
X6111356Y-4335356D01*
X6111356Y-5859356D02*
X6111356Y-5788644D01*
X6040644Y-5788644D01*
X6040644Y-5859356D01*
X6111356Y-5859356D01*
X6233924Y-3941850D02*
X6233924Y-3871138D01*
X6163213Y-3871138D01*
X6163213Y-3941850D01*
X6233924Y-3941850D01*
X6233924Y-6227850D02*
X6233924Y-6157138D01*
X6163213Y-6157138D01*
X6163213Y-6227850D01*
X6233924Y-6227850D01*
X6365356Y-4335356D02*
X6365356Y-4264644D01*
X6294644Y-4264644D01*
X6294644Y-4335356D01*
X6365356Y-4335356D01*
X6365356Y-5859356D02*
X6365356Y-5788644D01*
X6294644Y-5788644D01*
X6294644Y-5859356D01*
X6365356Y-5859356D01*
X6487924Y-3941850D02*
X6487924Y-3871138D01*
X6417213Y-3871138D01*
X6417213Y-3941850D01*
X6487924Y-3941850D01*
X6487924Y-6227850D02*
X6487924Y-6157138D01*
X6417213Y-6157138D01*
X6417213Y-6227850D01*
X6487924Y-6227850D01*
X6619356Y-4335356D02*
X6619356Y-4264644D01*
X6548644Y-4264644D01*
X6548644Y-4335356D01*
X6619356Y-4335356D01*
X6619356Y-5859356D02*
X6619356Y-5788644D01*
X6548644Y-5788644D01*
X6548644Y-5859356D01*
X6619356Y-5859356D01*
X6741924Y-3941850D02*
X6741924Y-3871138D01*
X6671213Y-3871138D01*
X6671213Y-3941850D01*
X6741924Y-3941850D01*
X6741924Y-6227850D02*
X6741924Y-6157138D01*
X6671213Y-6157138D01*
X6671213Y-6227850D01*
X6741924Y-6227850D01*
X6873356Y-4335356D02*
X6873356Y-4264644D01*
X6802644Y-4264644D01*
X6802644Y-4335356D01*
X6873356Y-4335356D01*
X6873356Y-5859356D02*
X6873356Y-5788644D01*
X6802644Y-5788644D01*
X6802644Y-5859356D01*
X6873356Y-5859356D01*
X7127356Y-4335356D02*
X7127356Y-4264644D01*
X7056644Y-4264644D01*
X7056644Y-4335356D01*
X7127356Y-4335356D01*
X7127356Y-5859356D02*
X7127356Y-5788644D01*
X7056644Y-5788644D01*
X7056644Y-5859356D01*
X7127356Y-5859356D01*
X7360356Y-7260356D02*
X7360356Y-7189644D01*
X7289644Y-7189644D01*
X7289644Y-7260356D01*
X7360356Y-7260356D01*
X7360356Y-7710356D02*
X7360356Y-7639644D01*
X7289644Y-7639644D01*
X7289644Y-7710356D01*
X7360356Y-7710356D01*
X7381356Y-4335356D02*
X7381356Y-4264644D01*
X7310644Y-4264644D01*
X7310644Y-4335356D01*
X7381356Y-4335356D01*
X7381356Y-5859356D02*
X7381356Y-5788644D01*
X7310644Y-5788644D01*
X7310644Y-5859356D01*
X7381356Y-5859356D01*
X7635356Y-4335356D02*
X7635356Y-4264644D01*
X7564644Y-4264644D01*
X7564644Y-4335356D01*
X7635356Y-4335356D01*
X7635356Y-5859356D02*
X7635356Y-5788644D01*
X7564644Y-5788644D01*
X7564644Y-5859356D01*
X7635356Y-5859356D01*
X7889356Y-4335356D02*
X7889356Y-4264644D01*
X7818644Y-4264644D01*
X7818644Y-4335356D01*
X7889356Y-4335356D01*
X7889356Y-5859356D02*
X7889356Y-5788644D01*
X7818644Y-5788644D01*
X7818644Y-5859356D01*
X7889356Y-5859356D01*
X8010356Y-7260356D02*
X8010356Y-7189644D01*
X7939644Y-7189644D01*
X7939644Y-7260356D01*
X8010356Y-7260356D01*
X8010356Y-7710356D02*
X8010356Y-7639644D01*
X7939644Y-7639644D01*
X7939644Y-7710356D01*
X8010356Y-7710356D01*
X8143356Y-4335356D02*
X8143356Y-4264644D01*
X8072644Y-4264644D01*
X8072644Y-4335356D01*
X8143356Y-4335356D01*
X8143356Y-5859356D02*
X8143356Y-5788644D01*
X8072644Y-5788644D01*
X8072644Y-5859356D01*
X8143356Y-5859356D01*
X9435356Y-5785356D02*
X9435356Y-5714644D01*
X9364644Y-5714644D01*
X9364644Y-5785356D01*
X9435356Y-5785356D01*
X9685356Y-5785356D02*
X9685356Y-5714644D01*
X9614644Y-5714644D01*
X9614644Y-5785356D01*
X9685356Y-5785356D01*
X9935356Y-5785356D02*
X9935356Y-5714644D01*
X9864644Y-5714644D01*
X9864644Y-5785356D01*
X9935356Y-5785356D01*
D13*
X7442000Y-3080000D02*
X7522000Y-3000000D01*
X7442000Y-2920000D01*
X7362000Y-3000000D01*
X7442000Y-3080000D01*
X7950000Y-3080000D02*
X8030000Y-3000000D01*
X7950000Y-2920000D01*
X7870000Y-3000000D01*
X7950000Y-3080000D01*
X10760000Y-8795000D02*
X10840000Y-8715000D01*
X10760000Y-8635000D01*
X10680000Y-8715000D01*
X10760000Y-8795000D01*
X10760000Y-10365000D02*
X10840000Y-10285000D01*
X10760000Y-10205000D01*
X10680000Y-10285000D01*
X10760000Y-10365000D01*
D11*
X8990000Y-4900000D02*
X9190000Y-5100000D01*
X9190000Y-4900000D02*
X8990000Y-5100000D01*
X9190000Y-5000000D02*
G75*
G02*
X8990000Y-5000000I-100000J0D01*
G01*
X8990000Y-5000000D02*
G75*
G02*
X9190000Y-5000000I100000J0D01*
G01*
X10110000Y-4900000D02*
X10310000Y-5100000D01*
X10310000Y-4900000D02*
X10110000Y-5100000D01*
X10310000Y-5000000D02*
G75*
G02*
X10110000Y-5000000I-100000J0D01*
G01*
X10110000Y-5000000D02*
G75*
G02*
X10310000Y-5000000I100000J0D01*
G01*
X1958277Y-11213984D02*
X1958277Y-11013984D01*
X1958277Y-11013984D02*
X2005896Y-11013984D01*
X2005896Y-11013984D02*
X2034467Y-11023508D01*
X2034467Y-11023508D02*
X2053515Y-11042555D01*
X2053515Y-11042555D02*
X2063039Y-11061603D01*
X2063039Y-11061603D02*
X2072562Y-11099698D01*
X2072562Y-11099698D02*
X2072562Y-11128270D01*
X2072562Y-11128270D02*
X2063039Y-11166365D01*
X2063039Y-11166365D02*
X2053515Y-11185412D01*
X2053515Y-11185412D02*
X2034467Y-11204460D01*
X2034467Y-11204460D02*
X2005896Y-11213984D01*
X2005896Y-11213984D02*
X1958277Y-11213984D01*
X2158277Y-11213984D02*
X2158277Y-11080650D01*
X2158277Y-11118746D02*
X2167801Y-11099698D01*
X2167801Y-11099698D02*
X2177324Y-11090174D01*
X2177324Y-11090174D02*
X2196372Y-11080650D01*
X2196372Y-11080650D02*
X2215420Y-11080650D01*
X2282086Y-11213984D02*
X2282086Y-11080650D01*
X2282086Y-11013984D02*
X2272563Y-11023508D01*
X2272563Y-11023508D02*
X2282086Y-11033031D01*
X2282086Y-11033031D02*
X2291610Y-11023508D01*
X2291610Y-11023508D02*
X2282086Y-11013984D01*
X2282086Y-11013984D02*
X2282086Y-11033031D01*
X2405896Y-11213984D02*
X2386848Y-11204460D01*
X2386848Y-11204460D02*
X2377324Y-11185412D01*
X2377324Y-11185412D02*
X2377324Y-11013984D01*
X2510658Y-11213984D02*
X2491610Y-11204460D01*
X2491610Y-11204460D02*
X2482086Y-11185412D01*
X2482086Y-11185412D02*
X2482086Y-11013984D01*
X2739229Y-11213984D02*
X2739229Y-11013984D01*
X2739229Y-11013984D02*
X2805896Y-11156841D01*
X2805896Y-11156841D02*
X2872562Y-11013984D01*
X2872562Y-11013984D02*
X2872562Y-11213984D01*
X3053515Y-11213984D02*
X3053515Y-11109222D01*
X3053515Y-11109222D02*
X3043991Y-11090174D01*
X3043991Y-11090174D02*
X3024943Y-11080650D01*
X3024943Y-11080650D02*
X2986848Y-11080650D01*
X2986848Y-11080650D02*
X2967801Y-11090174D01*
X3053515Y-11204460D02*
X3034467Y-11213984D01*
X3034467Y-11213984D02*
X2986848Y-11213984D01*
X2986848Y-11213984D02*
X2967801Y-11204460D01*
X2967801Y-11204460D02*
X2958277Y-11185412D01*
X2958277Y-11185412D02*
X2958277Y-11166365D01*
X2958277Y-11166365D02*
X2967801Y-11147317D01*
X2967801Y-11147317D02*
X2986848Y-11137793D01*
X2986848Y-11137793D02*
X3034467Y-11137793D01*
X3034467Y-11137793D02*
X3053515Y-11128270D01*
X3148753Y-11080650D02*
X3148753Y-11280650D01*
X3148753Y-11090174D02*
X3167801Y-11080650D01*
X3167801Y-11080650D02*
X3205896Y-11080650D01*
X3205896Y-11080650D02*
X3224943Y-11090174D01*
X3224943Y-11090174D02*
X3234467Y-11099698D01*
X3234467Y-11099698D02*
X3243991Y-11118746D01*
X3243991Y-11118746D02*
X3243991Y-11175889D01*
X3243991Y-11175889D02*
X3234467Y-11194936D01*
X3234467Y-11194936D02*
X3224943Y-11204460D01*
X3224943Y-11204460D02*
X3205896Y-11213984D01*
X3205896Y-11213984D02*
X3167801Y-11213984D01*
X3167801Y-11213984D02*
X3148753Y-11204460D01*
X3329705Y-11194936D02*
X3339229Y-11204460D01*
X3339229Y-11204460D02*
X3329705Y-11213984D01*
X3329705Y-11213984D02*
X3320182Y-11204460D01*
X3320182Y-11204460D02*
X3329705Y-11194936D01*
X3329705Y-11194936D02*
X3329705Y-11213984D01*
X3329705Y-11090174D02*
X3339229Y-11099698D01*
X3339229Y-11099698D02*
X3329705Y-11109222D01*
X3329705Y-11109222D02*
X3320182Y-11099698D01*
X3320182Y-11099698D02*
X3329705Y-11090174D01*
X3329705Y-11090174D02*
X3329705Y-11109222D01*
D12*
X1627500Y-11507500D02*
X1697500Y-11577500D01*
X1697500Y-11507500D02*
X1627500Y-11577500D01*
D11*
X1996372Y-11433984D02*
X2015420Y-11433984D01*
X2015420Y-11433984D02*
X2034467Y-11443508D01*
X2034467Y-11443508D02*
X2043991Y-11453031D01*
X2043991Y-11453031D02*
X2053515Y-11472079D01*
X2053515Y-11472079D02*
X2063039Y-11510174D01*
X2063039Y-11510174D02*
X2063039Y-11557793D01*
X2063039Y-11557793D02*
X2053515Y-11595888D01*
X2053515Y-11595888D02*
X2043991Y-11614936D01*
X2043991Y-11614936D02*
X2034467Y-11624460D01*
X2034467Y-11624460D02*
X2015420Y-11633984D01*
X2015420Y-11633984D02*
X1996372Y-11633984D01*
X1996372Y-11633984D02*
X1977324Y-11624460D01*
X1977324Y-11624460D02*
X1967801Y-11614936D01*
X1967801Y-11614936D02*
X1958277Y-11595888D01*
X1958277Y-11595888D02*
X1948753Y-11557793D01*
X1948753Y-11557793D02*
X1948753Y-11510174D01*
X1948753Y-11510174D02*
X1958277Y-11472079D01*
X1958277Y-11472079D02*
X1967801Y-11453031D01*
X1967801Y-11453031D02*
X1977324Y-11443508D01*
X1977324Y-11443508D02*
X1996372Y-11433984D01*
X2148753Y-11614936D02*
X2158277Y-11624460D01*
X2158277Y-11624460D02*
X2148753Y-11633984D01*
X2148753Y-11633984D02*
X2139229Y-11624460D01*
X2139229Y-11624460D02*
X2148753Y-11614936D01*
X2148753Y-11614936D02*
X2148753Y-11633984D01*
X2224944Y-11433984D02*
X2358277Y-11433984D01*
X2358277Y-11433984D02*
X2272563Y-11633984D01*
X2472563Y-11433984D02*
X2491610Y-11433984D01*
X2491610Y-11433984D02*
X2510658Y-11443508D01*
X2510658Y-11443508D02*
X2520182Y-11453031D01*
X2520182Y-11453031D02*
X2529705Y-11472079D01*
X2529705Y-11472079D02*
X2539229Y-11510174D01*
X2539229Y-11510174D02*
X2539229Y-11557793D01*
X2539229Y-11557793D02*
X2529705Y-11595888D01*
X2529705Y-11595888D02*
X2520182Y-11614936D01*
X2520182Y-11614936D02*
X2510658Y-11624460D01*
X2510658Y-11624460D02*
X2491610Y-11633984D01*
X2491610Y-11633984D02*
X2472563Y-11633984D01*
X2472563Y-11633984D02*
X2453515Y-11624460D01*
X2453515Y-11624460D02*
X2443991Y-11614936D01*
X2443991Y-11614936D02*
X2434467Y-11595888D01*
X2434467Y-11595888D02*
X2424944Y-11557793D01*
X2424944Y-11557793D02*
X2424944Y-11510174D01*
X2424944Y-11510174D02*
X2434467Y-11472079D01*
X2434467Y-11472079D02*
X2443991Y-11453031D01*
X2443991Y-11453031D02*
X2453515Y-11443508D01*
X2453515Y-11443508D02*
X2472563Y-11433984D01*
X2663039Y-11433984D02*
X2682086Y-11433984D01*
X2682086Y-11433984D02*
X2701134Y-11443508D01*
X2701134Y-11443508D02*
X2710658Y-11453031D01*
X2710658Y-11453031D02*
X2720182Y-11472079D01*
X2720182Y-11472079D02*
X2729705Y-11510174D01*
X2729705Y-11510174D02*
X2729705Y-11557793D01*
X2729705Y-11557793D02*
X2720182Y-11595888D01*
X2720182Y-11595888D02*
X2710658Y-11614936D01*
X2710658Y-11614936D02*
X2701134Y-11624460D01*
X2701134Y-11624460D02*
X2682086Y-11633984D01*
X2682086Y-11633984D02*
X2663039Y-11633984D01*
X2663039Y-11633984D02*
X2643991Y-11624460D01*
X2643991Y-11624460D02*
X2634467Y-11614936D01*
X2634467Y-11614936D02*
X2624944Y-11595888D01*
X2624944Y-11595888D02*
X2615420Y-11557793D01*
X2615420Y-11557793D02*
X2615420Y-11510174D01*
X2615420Y-11510174D02*
X2624944Y-11472079D01*
X2624944Y-11472079D02*
X2634467Y-11453031D01*
X2634467Y-11453031D02*
X2643991Y-11443508D01*
X2643991Y-11443508D02*
X2663039Y-11433984D01*
X2815420Y-11633984D02*
X2815420Y-11500650D01*
X2815420Y-11519698D02*
X2824943Y-11510174D01*
X2824943Y-11510174D02*
X2843991Y-11500650D01*
X2843991Y-11500650D02*
X2872563Y-11500650D01*
X2872563Y-11500650D02*
X2891610Y-11510174D01*
X2891610Y-11510174D02*
X2901134Y-11529222D01*
X2901134Y-11529222D02*
X2901134Y-11633984D01*
X2901134Y-11529222D02*
X2910658Y-11510174D01*
X2910658Y-11510174D02*
X2929705Y-11500650D01*
X2929705Y-11500650D02*
X2958277Y-11500650D01*
X2958277Y-11500650D02*
X2977324Y-11510174D01*
X2977324Y-11510174D02*
X2986848Y-11529222D01*
X2986848Y-11529222D02*
X2986848Y-11633984D01*
X3082086Y-11633984D02*
X3082086Y-11500650D01*
X3082086Y-11519698D02*
X3091610Y-11510174D01*
X3091610Y-11510174D02*
X3110658Y-11500650D01*
X3110658Y-11500650D02*
X3139229Y-11500650D01*
X3139229Y-11500650D02*
X3158277Y-11510174D01*
X3158277Y-11510174D02*
X3167801Y-11529222D01*
X3167801Y-11529222D02*
X3167801Y-11633984D01*
X3167801Y-11529222D02*
X3177324Y-11510174D01*
X3177324Y-11510174D02*
X3196372Y-11500650D01*
X3196372Y-11500650D02*
X3224943Y-11500650D01*
X3224943Y-11500650D02*
X3243991Y-11510174D01*
X3243991Y-11510174D02*
X3253515Y-11529222D01*
X3253515Y-11529222D02*
X3253515Y-11633984D01*
X3643991Y-11424460D02*
X3472563Y-11681603D01*
X3901134Y-11433984D02*
X3920182Y-11433984D01*
X3920182Y-11433984D02*
X3939229Y-11443508D01*
X3939229Y-11443508D02*
X3948753Y-11453031D01*
X3948753Y-11453031D02*
X3958277Y-11472079D01*
X3958277Y-11472079D02*
X3967801Y-11510174D01*
X3967801Y-11510174D02*
X3967801Y-11557793D01*
X3967801Y-11557793D02*
X3958277Y-11595888D01*
X3958277Y-11595888D02*
X3948753Y-11614936D01*
X3948753Y-11614936D02*
X3939229Y-11624460D01*
X3939229Y-11624460D02*
X3920182Y-11633984D01*
X3920182Y-11633984D02*
X3901134Y-11633984D01*
X3901134Y-11633984D02*
X3882086Y-11624460D01*
X3882086Y-11624460D02*
X3872563Y-11614936D01*
X3872563Y-11614936D02*
X3863039Y-11595888D01*
X3863039Y-11595888D02*
X3853515Y-11557793D01*
X3853515Y-11557793D02*
X3853515Y-11510174D01*
X3853515Y-11510174D02*
X3863039Y-11472079D01*
X3863039Y-11472079D02*
X3872563Y-11453031D01*
X3872563Y-11453031D02*
X3882086Y-11443508D01*
X3882086Y-11443508D02*
X3901134Y-11433984D01*
X4053515Y-11614936D02*
X4063039Y-11624460D01*
X4063039Y-11624460D02*
X4053515Y-11633984D01*
X4053515Y-11633984D02*
X4043991Y-11624460D01*
X4043991Y-11624460D02*
X4053515Y-11614936D01*
X4053515Y-11614936D02*
X4053515Y-11633984D01*
X4186848Y-11433984D02*
X4205896Y-11433984D01*
X4205896Y-11433984D02*
X4224944Y-11443508D01*
X4224944Y-11443508D02*
X4234468Y-11453031D01*
X4234468Y-11453031D02*
X4243991Y-11472079D01*
X4243991Y-11472079D02*
X4253515Y-11510174D01*
X4253515Y-11510174D02*
X4253515Y-11557793D01*
X4253515Y-11557793D02*
X4243991Y-11595888D01*
X4243991Y-11595888D02*
X4234468Y-11614936D01*
X4234468Y-11614936D02*
X4224944Y-11624460D01*
X4224944Y-11624460D02*
X4205896Y-11633984D01*
X4205896Y-11633984D02*
X4186848Y-11633984D01*
X4186848Y-11633984D02*
X4167801Y-11624460D01*
X4167801Y-11624460D02*
X4158277Y-11614936D01*
X4158277Y-11614936D02*
X4148753Y-11595888D01*
X4148753Y-11595888D02*
X4139229Y-11557793D01*
X4139229Y-11557793D02*
X4139229Y-11510174D01*
X4139229Y-11510174D02*
X4148753Y-11472079D01*
X4148753Y-11472079D02*
X4158277Y-11453031D01*
X4158277Y-11453031D02*
X4167801Y-11443508D01*
X4167801Y-11443508D02*
X4186848Y-11433984D01*
X4329706Y-11453031D02*
X4339229Y-11443508D01*
X4339229Y-11443508D02*
X4358277Y-11433984D01*
X4358277Y-11433984D02*
X4405896Y-11433984D01*
X4405896Y-11433984D02*
X4424944Y-11443508D01*
X4424944Y-11443508D02*
X4434468Y-11453031D01*
X4434468Y-11453031D02*
X4443991Y-11472079D01*
X4443991Y-11472079D02*
X4443991Y-11491127D01*
X4443991Y-11491127D02*
X4434468Y-11519698D01*
X4434468Y-11519698D02*
X4320182Y-11633984D01*
X4320182Y-11633984D02*
X4443991Y-11633984D01*
X4510658Y-11433984D02*
X4643991Y-11433984D01*
X4643991Y-11433984D02*
X4558277Y-11633984D01*
X4805896Y-11433984D02*
X4767801Y-11433984D01*
X4767801Y-11433984D02*
X4748753Y-11443508D01*
X4748753Y-11443508D02*
X4739229Y-11453031D01*
X4739229Y-11453031D02*
X4720182Y-11481603D01*
X4720182Y-11481603D02*
X4710658Y-11519698D01*
X4710658Y-11519698D02*
X4710658Y-11595888D01*
X4710658Y-11595888D02*
X4720182Y-11614936D01*
X4720182Y-11614936D02*
X4729706Y-11624460D01*
X4729706Y-11624460D02*
X4748753Y-11633984D01*
X4748753Y-11633984D02*
X4786849Y-11633984D01*
X4786849Y-11633984D02*
X4805896Y-11624460D01*
X4805896Y-11624460D02*
X4815420Y-11614936D01*
X4815420Y-11614936D02*
X4824944Y-11595888D01*
X4824944Y-11595888D02*
X4824944Y-11548269D01*
X4824944Y-11548269D02*
X4815420Y-11529222D01*
X4815420Y-11529222D02*
X4805896Y-11519698D01*
X4805896Y-11519698D02*
X4786849Y-11510174D01*
X4786849Y-11510174D02*
X4748753Y-11510174D01*
X4748753Y-11510174D02*
X4729706Y-11519698D01*
X4729706Y-11519698D02*
X4720182Y-11529222D01*
X4720182Y-11529222D02*
X4710658Y-11548269D01*
X4901134Y-11433984D02*
X4901134Y-11472079D01*
X4977325Y-11433984D02*
X4977325Y-11472079D01*
X5272563Y-11710174D02*
X5263039Y-11700650D01*
X5263039Y-11700650D02*
X5243991Y-11672079D01*
X5243991Y-11672079D02*
X5234468Y-11653031D01*
X5234468Y-11653031D02*
X5224944Y-11624460D01*
X5224944Y-11624460D02*
X5215420Y-11576841D01*
X5215420Y-11576841D02*
X5215420Y-11538746D01*
X5215420Y-11538746D02*
X5224944Y-11491127D01*
X5224944Y-11491127D02*
X5234468Y-11462555D01*
X5234468Y-11462555D02*
X5243991Y-11443508D01*
X5243991Y-11443508D02*
X5263039Y-11414936D01*
X5263039Y-11414936D02*
X5272563Y-11405412D01*
X5453515Y-11633984D02*
X5339230Y-11633984D01*
X5396372Y-11633984D02*
X5396372Y-11433984D01*
X5396372Y-11433984D02*
X5377325Y-11462555D01*
X5377325Y-11462555D02*
X5358277Y-11481603D01*
X5358277Y-11481603D02*
X5339230Y-11491127D01*
X5548753Y-11633984D02*
X5586849Y-11633984D01*
X5586849Y-11633984D02*
X5605896Y-11624460D01*
X5605896Y-11624460D02*
X5615420Y-11614936D01*
X5615420Y-11614936D02*
X5634468Y-11586365D01*
X5634468Y-11586365D02*
X5643991Y-11548269D01*
X5643991Y-11548269D02*
X5643991Y-11472079D01*
X5643991Y-11472079D02*
X5634468Y-11453031D01*
X5634468Y-11453031D02*
X5624944Y-11443508D01*
X5624944Y-11443508D02*
X5605896Y-11433984D01*
X5605896Y-11433984D02*
X5567801Y-11433984D01*
X5567801Y-11433984D02*
X5548753Y-11443508D01*
X5548753Y-11443508D02*
X5539230Y-11453031D01*
X5539230Y-11453031D02*
X5529706Y-11472079D01*
X5529706Y-11472079D02*
X5529706Y-11519698D01*
X5529706Y-11519698D02*
X5539230Y-11538746D01*
X5539230Y-11538746D02*
X5548753Y-11548269D01*
X5548753Y-11548269D02*
X5567801Y-11557793D01*
X5567801Y-11557793D02*
X5605896Y-11557793D01*
X5605896Y-11557793D02*
X5624944Y-11548269D01*
X5624944Y-11548269D02*
X5634468Y-11538746D01*
X5634468Y-11538746D02*
X5643991Y-11519698D01*
X5882087Y-11633984D02*
X5882087Y-11433984D01*
X5967801Y-11633984D02*
X5967801Y-11529222D01*
X5967801Y-11529222D02*
X5958277Y-11510174D01*
X5958277Y-11510174D02*
X5939230Y-11500650D01*
X5939230Y-11500650D02*
X5910658Y-11500650D01*
X5910658Y-11500650D02*
X5891610Y-11510174D01*
X5891610Y-11510174D02*
X5882087Y-11519698D01*
X6091610Y-11633984D02*
X6072563Y-11624460D01*
X6072563Y-11624460D02*
X6063039Y-11614936D01*
X6063039Y-11614936D02*
X6053515Y-11595888D01*
X6053515Y-11595888D02*
X6053515Y-11538746D01*
X6053515Y-11538746D02*
X6063039Y-11519698D01*
X6063039Y-11519698D02*
X6072563Y-11510174D01*
X6072563Y-11510174D02*
X6091610Y-11500650D01*
X6091610Y-11500650D02*
X6120182Y-11500650D01*
X6120182Y-11500650D02*
X6139230Y-11510174D01*
X6139230Y-11510174D02*
X6148753Y-11519698D01*
X6148753Y-11519698D02*
X6158277Y-11538746D01*
X6158277Y-11538746D02*
X6158277Y-11595888D01*
X6158277Y-11595888D02*
X6148753Y-11614936D01*
X6148753Y-11614936D02*
X6139230Y-11624460D01*
X6139230Y-11624460D02*
X6120182Y-11633984D01*
X6120182Y-11633984D02*
X6091610Y-11633984D01*
X6272563Y-11633984D02*
X6253515Y-11624460D01*
X6253515Y-11624460D02*
X6243991Y-11605412D01*
X6243991Y-11605412D02*
X6243991Y-11433984D01*
X6424944Y-11624460D02*
X6405896Y-11633984D01*
X6405896Y-11633984D02*
X6367801Y-11633984D01*
X6367801Y-11633984D02*
X6348753Y-11624460D01*
X6348753Y-11624460D02*
X6339230Y-11605412D01*
X6339230Y-11605412D02*
X6339230Y-11529222D01*
X6339230Y-11529222D02*
X6348753Y-11510174D01*
X6348753Y-11510174D02*
X6367801Y-11500650D01*
X6367801Y-11500650D02*
X6405896Y-11500650D01*
X6405896Y-11500650D02*
X6424944Y-11510174D01*
X6424944Y-11510174D02*
X6434468Y-11529222D01*
X6434468Y-11529222D02*
X6434468Y-11548269D01*
X6434468Y-11548269D02*
X6339230Y-11567317D01*
X6510658Y-11624460D02*
X6529706Y-11633984D01*
X6529706Y-11633984D02*
X6567801Y-11633984D01*
X6567801Y-11633984D02*
X6586849Y-11624460D01*
X6586849Y-11624460D02*
X6596372Y-11605412D01*
X6596372Y-11605412D02*
X6596372Y-11595888D01*
X6596372Y-11595888D02*
X6586849Y-11576841D01*
X6586849Y-11576841D02*
X6567801Y-11567317D01*
X6567801Y-11567317D02*
X6539230Y-11567317D01*
X6539230Y-11567317D02*
X6520182Y-11557793D01*
X6520182Y-11557793D02*
X6510658Y-11538746D01*
X6510658Y-11538746D02*
X6510658Y-11529222D01*
X6510658Y-11529222D02*
X6520182Y-11510174D01*
X6520182Y-11510174D02*
X6539230Y-11500650D01*
X6539230Y-11500650D02*
X6567801Y-11500650D01*
X6567801Y-11500650D02*
X6586849Y-11510174D01*
X6663039Y-11710174D02*
X6672563Y-11700650D01*
X6672563Y-11700650D02*
X6691611Y-11672079D01*
X6691611Y-11672079D02*
X6701134Y-11653031D01*
X6701134Y-11653031D02*
X6710658Y-11624460D01*
X6710658Y-11624460D02*
X6720182Y-11576841D01*
X6720182Y-11576841D02*
X6720182Y-11538746D01*
X6720182Y-11538746D02*
X6710658Y-11491127D01*
X6710658Y-11491127D02*
X6701134Y-11462555D01*
X6701134Y-11462555D02*
X6691611Y-11443508D01*
X6691611Y-11443508D02*
X6672563Y-11414936D01*
X6672563Y-11414936D02*
X6663039Y-11405412D01*
D12*
X1697500Y-11806500D02*
G75*
G02*
X1607500Y-11806500I-45000J0D01*
G01*
X1607500Y-11806500D02*
G75*
G02*
X1697500Y-11806500I45000J0D01*
G01*
D11*
X1996372Y-11697984D02*
X2015420Y-11697984D01*
X2015420Y-11697984D02*
X2034467Y-11707508D01*
X2034467Y-11707508D02*
X2043991Y-11717031D01*
X2043991Y-11717031D02*
X2053515Y-11736079D01*
X2053515Y-11736079D02*
X2063039Y-11774174D01*
X2063039Y-11774174D02*
X2063039Y-11821793D01*
X2063039Y-11821793D02*
X2053515Y-11859888D01*
X2053515Y-11859888D02*
X2043991Y-11878936D01*
X2043991Y-11878936D02*
X2034467Y-11888460D01*
X2034467Y-11888460D02*
X2015420Y-11897984D01*
X2015420Y-11897984D02*
X1996372Y-11897984D01*
X1996372Y-11897984D02*
X1977324Y-11888460D01*
X1977324Y-11888460D02*
X1967801Y-11878936D01*
X1967801Y-11878936D02*
X1958277Y-11859888D01*
X1958277Y-11859888D02*
X1948753Y-11821793D01*
X1948753Y-11821793D02*
X1948753Y-11774174D01*
X1948753Y-11774174D02*
X1958277Y-11736079D01*
X1958277Y-11736079D02*
X1967801Y-11717031D01*
X1967801Y-11717031D02*
X1977324Y-11707508D01*
X1977324Y-11707508D02*
X1996372Y-11697984D01*
X2148753Y-11878936D02*
X2158277Y-11888460D01*
X2158277Y-11888460D02*
X2148753Y-11897984D01*
X2148753Y-11897984D02*
X2139229Y-11888460D01*
X2139229Y-11888460D02*
X2148753Y-11878936D01*
X2148753Y-11878936D02*
X2148753Y-11897984D01*
X2253515Y-11897984D02*
X2291610Y-11897984D01*
X2291610Y-11897984D02*
X2310658Y-11888460D01*
X2310658Y-11888460D02*
X2320182Y-11878936D01*
X2320182Y-11878936D02*
X2339229Y-11850365D01*
X2339229Y-11850365D02*
X2348753Y-11812269D01*
X2348753Y-11812269D02*
X2348753Y-11736079D01*
X2348753Y-11736079D02*
X2339229Y-11717031D01*
X2339229Y-11717031D02*
X2329705Y-11707508D01*
X2329705Y-11707508D02*
X2310658Y-11697984D01*
X2310658Y-11697984D02*
X2272563Y-11697984D01*
X2272563Y-11697984D02*
X2253515Y-11707508D01*
X2253515Y-11707508D02*
X2243991Y-11717031D01*
X2243991Y-11717031D02*
X2234467Y-11736079D01*
X2234467Y-11736079D02*
X2234467Y-11783698D01*
X2234467Y-11783698D02*
X2243991Y-11802746D01*
X2243991Y-11802746D02*
X2253515Y-11812269D01*
X2253515Y-11812269D02*
X2272563Y-11821793D01*
X2272563Y-11821793D02*
X2310658Y-11821793D01*
X2310658Y-11821793D02*
X2329705Y-11812269D01*
X2329705Y-11812269D02*
X2339229Y-11802746D01*
X2339229Y-11802746D02*
X2348753Y-11783698D01*
X2472563Y-11697984D02*
X2491610Y-11697984D01*
X2491610Y-11697984D02*
X2510658Y-11707508D01*
X2510658Y-11707508D02*
X2520182Y-11717031D01*
X2520182Y-11717031D02*
X2529705Y-11736079D01*
X2529705Y-11736079D02*
X2539229Y-11774174D01*
X2539229Y-11774174D02*
X2539229Y-11821793D01*
X2539229Y-11821793D02*
X2529705Y-11859888D01*
X2529705Y-11859888D02*
X2520182Y-11878936D01*
X2520182Y-11878936D02*
X2510658Y-11888460D01*
X2510658Y-11888460D02*
X2491610Y-11897984D01*
X2491610Y-11897984D02*
X2472563Y-11897984D01*
X2472563Y-11897984D02*
X2453515Y-11888460D01*
X2453515Y-11888460D02*
X2443991Y-11878936D01*
X2443991Y-11878936D02*
X2434467Y-11859888D01*
X2434467Y-11859888D02*
X2424944Y-11821793D01*
X2424944Y-11821793D02*
X2424944Y-11774174D01*
X2424944Y-11774174D02*
X2434467Y-11736079D01*
X2434467Y-11736079D02*
X2443991Y-11717031D01*
X2443991Y-11717031D02*
X2453515Y-11707508D01*
X2453515Y-11707508D02*
X2472563Y-11697984D01*
X2663039Y-11697984D02*
X2682086Y-11697984D01*
X2682086Y-11697984D02*
X2701134Y-11707508D01*
X2701134Y-11707508D02*
X2710658Y-11717031D01*
X2710658Y-11717031D02*
X2720182Y-11736079D01*
X2720182Y-11736079D02*
X2729705Y-11774174D01*
X2729705Y-11774174D02*
X2729705Y-11821793D01*
X2729705Y-11821793D02*
X2720182Y-11859888D01*
X2720182Y-11859888D02*
X2710658Y-11878936D01*
X2710658Y-11878936D02*
X2701134Y-11888460D01*
X2701134Y-11888460D02*
X2682086Y-11897984D01*
X2682086Y-11897984D02*
X2663039Y-11897984D01*
X2663039Y-11897984D02*
X2643991Y-11888460D01*
X2643991Y-11888460D02*
X2634467Y-11878936D01*
X2634467Y-11878936D02*
X2624944Y-11859888D01*
X2624944Y-11859888D02*
X2615420Y-11821793D01*
X2615420Y-11821793D02*
X2615420Y-11774174D01*
X2615420Y-11774174D02*
X2624944Y-11736079D01*
X2624944Y-11736079D02*
X2634467Y-11717031D01*
X2634467Y-11717031D02*
X2643991Y-11707508D01*
X2643991Y-11707508D02*
X2663039Y-11697984D01*
X2815420Y-11897984D02*
X2815420Y-11764650D01*
X2815420Y-11783698D02*
X2824943Y-11774174D01*
X2824943Y-11774174D02*
X2843991Y-11764650D01*
X2843991Y-11764650D02*
X2872563Y-11764650D01*
X2872563Y-11764650D02*
X2891610Y-11774174D01*
X2891610Y-11774174D02*
X2901134Y-11793222D01*
X2901134Y-11793222D02*
X2901134Y-11897984D01*
X2901134Y-11793222D02*
X2910658Y-11774174D01*
X2910658Y-11774174D02*
X2929705Y-11764650D01*
X2929705Y-11764650D02*
X2958277Y-11764650D01*
X2958277Y-11764650D02*
X2977324Y-11774174D01*
X2977324Y-11774174D02*
X2986848Y-11793222D01*
X2986848Y-11793222D02*
X2986848Y-11897984D01*
X3082086Y-11897984D02*
X3082086Y-11764650D01*
X3082086Y-11783698D02*
X3091610Y-11774174D01*
X3091610Y-11774174D02*
X3110658Y-11764650D01*
X3110658Y-11764650D02*
X3139229Y-11764650D01*
X3139229Y-11764650D02*
X3158277Y-11774174D01*
X3158277Y-11774174D02*
X3167801Y-11793222D01*
X3167801Y-11793222D02*
X3167801Y-11897984D01*
X3167801Y-11793222D02*
X3177324Y-11774174D01*
X3177324Y-11774174D02*
X3196372Y-11764650D01*
X3196372Y-11764650D02*
X3224943Y-11764650D01*
X3224943Y-11764650D02*
X3243991Y-11774174D01*
X3243991Y-11774174D02*
X3253515Y-11793222D01*
X3253515Y-11793222D02*
X3253515Y-11897984D01*
X3643991Y-11688460D02*
X3472563Y-11945603D01*
X3901134Y-11697984D02*
X3920182Y-11697984D01*
X3920182Y-11697984D02*
X3939229Y-11707508D01*
X3939229Y-11707508D02*
X3948753Y-11717031D01*
X3948753Y-11717031D02*
X3958277Y-11736079D01*
X3958277Y-11736079D02*
X3967801Y-11774174D01*
X3967801Y-11774174D02*
X3967801Y-11821793D01*
X3967801Y-11821793D02*
X3958277Y-11859888D01*
X3958277Y-11859888D02*
X3948753Y-11878936D01*
X3948753Y-11878936D02*
X3939229Y-11888460D01*
X3939229Y-11888460D02*
X3920182Y-11897984D01*
X3920182Y-11897984D02*
X3901134Y-11897984D01*
X3901134Y-11897984D02*
X3882086Y-11888460D01*
X3882086Y-11888460D02*
X3872563Y-11878936D01*
X3872563Y-11878936D02*
X3863039Y-11859888D01*
X3863039Y-11859888D02*
X3853515Y-11821793D01*
X3853515Y-11821793D02*
X3853515Y-11774174D01*
X3853515Y-11774174D02*
X3863039Y-11736079D01*
X3863039Y-11736079D02*
X3872563Y-11717031D01*
X3872563Y-11717031D02*
X3882086Y-11707508D01*
X3882086Y-11707508D02*
X3901134Y-11697984D01*
X4053515Y-11878936D02*
X4063039Y-11888460D01*
X4063039Y-11888460D02*
X4053515Y-11897984D01*
X4053515Y-11897984D02*
X4043991Y-11888460D01*
X4043991Y-11888460D02*
X4053515Y-11878936D01*
X4053515Y-11878936D02*
X4053515Y-11897984D01*
X4186848Y-11697984D02*
X4205896Y-11697984D01*
X4205896Y-11697984D02*
X4224944Y-11707508D01*
X4224944Y-11707508D02*
X4234468Y-11717031D01*
X4234468Y-11717031D02*
X4243991Y-11736079D01*
X4243991Y-11736079D02*
X4253515Y-11774174D01*
X4253515Y-11774174D02*
X4253515Y-11821793D01*
X4253515Y-11821793D02*
X4243991Y-11859888D01*
X4243991Y-11859888D02*
X4234468Y-11878936D01*
X4234468Y-11878936D02*
X4224944Y-11888460D01*
X4224944Y-11888460D02*
X4205896Y-11897984D01*
X4205896Y-11897984D02*
X4186848Y-11897984D01*
X4186848Y-11897984D02*
X4167801Y-11888460D01*
X4167801Y-11888460D02*
X4158277Y-11878936D01*
X4158277Y-11878936D02*
X4148753Y-11859888D01*
X4148753Y-11859888D02*
X4139229Y-11821793D01*
X4139229Y-11821793D02*
X4139229Y-11774174D01*
X4139229Y-11774174D02*
X4148753Y-11736079D01*
X4148753Y-11736079D02*
X4158277Y-11717031D01*
X4158277Y-11717031D02*
X4167801Y-11707508D01*
X4167801Y-11707508D02*
X4186848Y-11697984D01*
X4320182Y-11697984D02*
X4443991Y-11697984D01*
X4443991Y-11697984D02*
X4377325Y-11774174D01*
X4377325Y-11774174D02*
X4405896Y-11774174D01*
X4405896Y-11774174D02*
X4424944Y-11783698D01*
X4424944Y-11783698D02*
X4434468Y-11793222D01*
X4434468Y-11793222D02*
X4443991Y-11812269D01*
X4443991Y-11812269D02*
X4443991Y-11859888D01*
X4443991Y-11859888D02*
X4434468Y-11878936D01*
X4434468Y-11878936D02*
X4424944Y-11888460D01*
X4424944Y-11888460D02*
X4405896Y-11897984D01*
X4405896Y-11897984D02*
X4348753Y-11897984D01*
X4348753Y-11897984D02*
X4329706Y-11888460D01*
X4329706Y-11888460D02*
X4320182Y-11878936D01*
X4624944Y-11697984D02*
X4529706Y-11697984D01*
X4529706Y-11697984D02*
X4520182Y-11793222D01*
X4520182Y-11793222D02*
X4529706Y-11783698D01*
X4529706Y-11783698D02*
X4548753Y-11774174D01*
X4548753Y-11774174D02*
X4596372Y-11774174D01*
X4596372Y-11774174D02*
X4615420Y-11783698D01*
X4615420Y-11783698D02*
X4624944Y-11793222D01*
X4624944Y-11793222D02*
X4634468Y-11812269D01*
X4634468Y-11812269D02*
X4634468Y-11859888D01*
X4634468Y-11859888D02*
X4624944Y-11878936D01*
X4624944Y-11878936D02*
X4615420Y-11888460D01*
X4615420Y-11888460D02*
X4596372Y-11897984D01*
X4596372Y-11897984D02*
X4548753Y-11897984D01*
X4548753Y-11897984D02*
X4529706Y-11888460D01*
X4529706Y-11888460D02*
X4520182Y-11878936D01*
X4805896Y-11764650D02*
X4805896Y-11897984D01*
X4758277Y-11688460D02*
X4710658Y-11831317D01*
X4710658Y-11831317D02*
X4834468Y-11831317D01*
X4901134Y-11697984D02*
X4901134Y-11736079D01*
X4977325Y-11697984D02*
X4977325Y-11736079D01*
X5272563Y-11974174D02*
X5263039Y-11964650D01*
X5263039Y-11964650D02*
X5243991Y-11936079D01*
X5243991Y-11936079D02*
X5234468Y-11917031D01*
X5234468Y-11917031D02*
X5224944Y-11888460D01*
X5224944Y-11888460D02*
X5215420Y-11840841D01*
X5215420Y-11840841D02*
X5215420Y-11802746D01*
X5215420Y-11802746D02*
X5224944Y-11755127D01*
X5224944Y-11755127D02*
X5234468Y-11726555D01*
X5234468Y-11726555D02*
X5243991Y-11707508D01*
X5243991Y-11707508D02*
X5263039Y-11678936D01*
X5263039Y-11678936D02*
X5272563Y-11669412D01*
X5453515Y-11897984D02*
X5339230Y-11897984D01*
X5396372Y-11897984D02*
X5396372Y-11697984D01*
X5396372Y-11697984D02*
X5377325Y-11726555D01*
X5377325Y-11726555D02*
X5358277Y-11745603D01*
X5358277Y-11745603D02*
X5339230Y-11755127D01*
X5520182Y-11697984D02*
X5643991Y-11697984D01*
X5643991Y-11697984D02*
X5577325Y-11774174D01*
X5577325Y-11774174D02*
X5605896Y-11774174D01*
X5605896Y-11774174D02*
X5624944Y-11783698D01*
X5624944Y-11783698D02*
X5634468Y-11793222D01*
X5634468Y-11793222D02*
X5643991Y-11812269D01*
X5643991Y-11812269D02*
X5643991Y-11859888D01*
X5643991Y-11859888D02*
X5634468Y-11878936D01*
X5634468Y-11878936D02*
X5624944Y-11888460D01*
X5624944Y-11888460D02*
X5605896Y-11897984D01*
X5605896Y-11897984D02*
X5548753Y-11897984D01*
X5548753Y-11897984D02*
X5529706Y-11888460D01*
X5529706Y-11888460D02*
X5520182Y-11878936D01*
X5882087Y-11897984D02*
X5882087Y-11697984D01*
X5967801Y-11897984D02*
X5967801Y-11793222D01*
X5967801Y-11793222D02*
X5958277Y-11774174D01*
X5958277Y-11774174D02*
X5939230Y-11764650D01*
X5939230Y-11764650D02*
X5910658Y-11764650D01*
X5910658Y-11764650D02*
X5891610Y-11774174D01*
X5891610Y-11774174D02*
X5882087Y-11783698D01*
X6091610Y-11897984D02*
X6072563Y-11888460D01*
X6072563Y-11888460D02*
X6063039Y-11878936D01*
X6063039Y-11878936D02*
X6053515Y-11859888D01*
X6053515Y-11859888D02*
X6053515Y-11802746D01*
X6053515Y-11802746D02*
X6063039Y-11783698D01*
X6063039Y-11783698D02*
X6072563Y-11774174D01*
X6072563Y-11774174D02*
X6091610Y-11764650D01*
X6091610Y-11764650D02*
X6120182Y-11764650D01*
X6120182Y-11764650D02*
X6139230Y-11774174D01*
X6139230Y-11774174D02*
X6148753Y-11783698D01*
X6148753Y-11783698D02*
X6158277Y-11802746D01*
X6158277Y-11802746D02*
X6158277Y-11859888D01*
X6158277Y-11859888D02*
X6148753Y-11878936D01*
X6148753Y-11878936D02*
X6139230Y-11888460D01*
X6139230Y-11888460D02*
X6120182Y-11897984D01*
X6120182Y-11897984D02*
X6091610Y-11897984D01*
X6272563Y-11897984D02*
X6253515Y-11888460D01*
X6253515Y-11888460D02*
X6243991Y-11869412D01*
X6243991Y-11869412D02*
X6243991Y-11697984D01*
X6424944Y-11888460D02*
X6405896Y-11897984D01*
X6405896Y-11897984D02*
X6367801Y-11897984D01*
X6367801Y-11897984D02*
X6348753Y-11888460D01*
X6348753Y-11888460D02*
X6339230Y-11869412D01*
X6339230Y-11869412D02*
X6339230Y-11793222D01*
X6339230Y-11793222D02*
X6348753Y-11774174D01*
X6348753Y-11774174D02*
X6367801Y-11764650D01*
X6367801Y-11764650D02*
X6405896Y-11764650D01*
X6405896Y-11764650D02*
X6424944Y-11774174D01*
X6424944Y-11774174D02*
X6434468Y-11793222D01*
X6434468Y-11793222D02*
X6434468Y-11812269D01*
X6434468Y-11812269D02*
X6339230Y-11831317D01*
X6510658Y-11888460D02*
X6529706Y-11897984D01*
X6529706Y-11897984D02*
X6567801Y-11897984D01*
X6567801Y-11897984D02*
X6586849Y-11888460D01*
X6586849Y-11888460D02*
X6596372Y-11869412D01*
X6596372Y-11869412D02*
X6596372Y-11859888D01*
X6596372Y-11859888D02*
X6586849Y-11840841D01*
X6586849Y-11840841D02*
X6567801Y-11831317D01*
X6567801Y-11831317D02*
X6539230Y-11831317D01*
X6539230Y-11831317D02*
X6520182Y-11821793D01*
X6520182Y-11821793D02*
X6510658Y-11802746D01*
X6510658Y-11802746D02*
X6510658Y-11793222D01*
X6510658Y-11793222D02*
X6520182Y-11774174D01*
X6520182Y-11774174D02*
X6539230Y-11764650D01*
X6539230Y-11764650D02*
X6567801Y-11764650D01*
X6567801Y-11764650D02*
X6586849Y-11774174D01*
X6663039Y-11974174D02*
X6672563Y-11964650D01*
X6672563Y-11964650D02*
X6691611Y-11936079D01*
X6691611Y-11936079D02*
X6701134Y-11917031D01*
X6701134Y-11917031D02*
X6710658Y-11888460D01*
X6710658Y-11888460D02*
X6720182Y-11840841D01*
X6720182Y-11840841D02*
X6720182Y-11802746D01*
X6720182Y-11802746D02*
X6710658Y-11755127D01*
X6710658Y-11755127D02*
X6701134Y-11726555D01*
X6701134Y-11726555D02*
X6691611Y-11707508D01*
X6691611Y-11707508D02*
X6672563Y-11678936D01*
X6672563Y-11678936D02*
X6663039Y-11669412D01*
D12*
X1650000Y-12023000D02*
X1650000Y-12118000D01*
X1602500Y-12070500D02*
X1697500Y-12070500D01*
D11*
X1996372Y-11961984D02*
X2015420Y-11961984D01*
X2015420Y-11961984D02*
X2034467Y-11971508D01*
X2034467Y-11971508D02*
X2043991Y-11981031D01*
X2043991Y-11981031D02*
X2053515Y-12000079D01*
X2053515Y-12000079D02*
X2063039Y-12038174D01*
X2063039Y-12038174D02*
X2063039Y-12085793D01*
X2063039Y-12085793D02*
X2053515Y-12123888D01*
X2053515Y-12123888D02*
X2043991Y-12142936D01*
X2043991Y-12142936D02*
X2034467Y-12152460D01*
X2034467Y-12152460D02*
X2015420Y-12161984D01*
X2015420Y-12161984D02*
X1996372Y-12161984D01*
X1996372Y-12161984D02*
X1977324Y-12152460D01*
X1977324Y-12152460D02*
X1967801Y-12142936D01*
X1967801Y-12142936D02*
X1958277Y-12123888D01*
X1958277Y-12123888D02*
X1948753Y-12085793D01*
X1948753Y-12085793D02*
X1948753Y-12038174D01*
X1948753Y-12038174D02*
X1958277Y-12000079D01*
X1958277Y-12000079D02*
X1967801Y-11981031D01*
X1967801Y-11981031D02*
X1977324Y-11971508D01*
X1977324Y-11971508D02*
X1996372Y-11961984D01*
X2148753Y-12142936D02*
X2158277Y-12152460D01*
X2158277Y-12152460D02*
X2148753Y-12161984D01*
X2148753Y-12161984D02*
X2139229Y-12152460D01*
X2139229Y-12152460D02*
X2148753Y-12142936D01*
X2148753Y-12142936D02*
X2148753Y-12161984D01*
X2253515Y-12161984D02*
X2291610Y-12161984D01*
X2291610Y-12161984D02*
X2310658Y-12152460D01*
X2310658Y-12152460D02*
X2320182Y-12142936D01*
X2320182Y-12142936D02*
X2339229Y-12114365D01*
X2339229Y-12114365D02*
X2348753Y-12076269D01*
X2348753Y-12076269D02*
X2348753Y-12000079D01*
X2348753Y-12000079D02*
X2339229Y-11981031D01*
X2339229Y-11981031D02*
X2329705Y-11971508D01*
X2329705Y-11971508D02*
X2310658Y-11961984D01*
X2310658Y-11961984D02*
X2272563Y-11961984D01*
X2272563Y-11961984D02*
X2253515Y-11971508D01*
X2253515Y-11971508D02*
X2243991Y-11981031D01*
X2243991Y-11981031D02*
X2234467Y-12000079D01*
X2234467Y-12000079D02*
X2234467Y-12047698D01*
X2234467Y-12047698D02*
X2243991Y-12066746D01*
X2243991Y-12066746D02*
X2253515Y-12076269D01*
X2253515Y-12076269D02*
X2272563Y-12085793D01*
X2272563Y-12085793D02*
X2310658Y-12085793D01*
X2310658Y-12085793D02*
X2329705Y-12076269D01*
X2329705Y-12076269D02*
X2339229Y-12066746D01*
X2339229Y-12066746D02*
X2348753Y-12047698D01*
X2529705Y-11961984D02*
X2434467Y-11961984D01*
X2434467Y-11961984D02*
X2424944Y-12057222D01*
X2424944Y-12057222D02*
X2434467Y-12047698D01*
X2434467Y-12047698D02*
X2453515Y-12038174D01*
X2453515Y-12038174D02*
X2501134Y-12038174D01*
X2501134Y-12038174D02*
X2520182Y-12047698D01*
X2520182Y-12047698D02*
X2529705Y-12057222D01*
X2529705Y-12057222D02*
X2539229Y-12076269D01*
X2539229Y-12076269D02*
X2539229Y-12123888D01*
X2539229Y-12123888D02*
X2529705Y-12142936D01*
X2529705Y-12142936D02*
X2520182Y-12152460D01*
X2520182Y-12152460D02*
X2501134Y-12161984D01*
X2501134Y-12161984D02*
X2453515Y-12161984D01*
X2453515Y-12161984D02*
X2434467Y-12152460D01*
X2434467Y-12152460D02*
X2424944Y-12142936D01*
X2663039Y-11961984D02*
X2682086Y-11961984D01*
X2682086Y-11961984D02*
X2701134Y-11971508D01*
X2701134Y-11971508D02*
X2710658Y-11981031D01*
X2710658Y-11981031D02*
X2720182Y-12000079D01*
X2720182Y-12000079D02*
X2729705Y-12038174D01*
X2729705Y-12038174D02*
X2729705Y-12085793D01*
X2729705Y-12085793D02*
X2720182Y-12123888D01*
X2720182Y-12123888D02*
X2710658Y-12142936D01*
X2710658Y-12142936D02*
X2701134Y-12152460D01*
X2701134Y-12152460D02*
X2682086Y-12161984D01*
X2682086Y-12161984D02*
X2663039Y-12161984D01*
X2663039Y-12161984D02*
X2643991Y-12152460D01*
X2643991Y-12152460D02*
X2634467Y-12142936D01*
X2634467Y-12142936D02*
X2624944Y-12123888D01*
X2624944Y-12123888D02*
X2615420Y-12085793D01*
X2615420Y-12085793D02*
X2615420Y-12038174D01*
X2615420Y-12038174D02*
X2624944Y-12000079D01*
X2624944Y-12000079D02*
X2634467Y-11981031D01*
X2634467Y-11981031D02*
X2643991Y-11971508D01*
X2643991Y-11971508D02*
X2663039Y-11961984D01*
X2815420Y-12161984D02*
X2815420Y-12028650D01*
X2815420Y-12047698D02*
X2824943Y-12038174D01*
X2824943Y-12038174D02*
X2843991Y-12028650D01*
X2843991Y-12028650D02*
X2872563Y-12028650D01*
X2872563Y-12028650D02*
X2891610Y-12038174D01*
X2891610Y-12038174D02*
X2901134Y-12057222D01*
X2901134Y-12057222D02*
X2901134Y-12161984D01*
X2901134Y-12057222D02*
X2910658Y-12038174D01*
X2910658Y-12038174D02*
X2929705Y-12028650D01*
X2929705Y-12028650D02*
X2958277Y-12028650D01*
X2958277Y-12028650D02*
X2977324Y-12038174D01*
X2977324Y-12038174D02*
X2986848Y-12057222D01*
X2986848Y-12057222D02*
X2986848Y-12161984D01*
X3082086Y-12161984D02*
X3082086Y-12028650D01*
X3082086Y-12047698D02*
X3091610Y-12038174D01*
X3091610Y-12038174D02*
X3110658Y-12028650D01*
X3110658Y-12028650D02*
X3139229Y-12028650D01*
X3139229Y-12028650D02*
X3158277Y-12038174D01*
X3158277Y-12038174D02*
X3167801Y-12057222D01*
X3167801Y-12057222D02*
X3167801Y-12161984D01*
X3167801Y-12057222D02*
X3177324Y-12038174D01*
X3177324Y-12038174D02*
X3196372Y-12028650D01*
X3196372Y-12028650D02*
X3224943Y-12028650D01*
X3224943Y-12028650D02*
X3243991Y-12038174D01*
X3243991Y-12038174D02*
X3253515Y-12057222D01*
X3253515Y-12057222D02*
X3253515Y-12161984D01*
X3643991Y-11952460D02*
X3472563Y-12209603D01*
X3901134Y-11961984D02*
X3920182Y-11961984D01*
X3920182Y-11961984D02*
X3939229Y-11971508D01*
X3939229Y-11971508D02*
X3948753Y-11981031D01*
X3948753Y-11981031D02*
X3958277Y-12000079D01*
X3958277Y-12000079D02*
X3967801Y-12038174D01*
X3967801Y-12038174D02*
X3967801Y-12085793D01*
X3967801Y-12085793D02*
X3958277Y-12123888D01*
X3958277Y-12123888D02*
X3948753Y-12142936D01*
X3948753Y-12142936D02*
X3939229Y-12152460D01*
X3939229Y-12152460D02*
X3920182Y-12161984D01*
X3920182Y-12161984D02*
X3901134Y-12161984D01*
X3901134Y-12161984D02*
X3882086Y-12152460D01*
X3882086Y-12152460D02*
X3872563Y-12142936D01*
X3872563Y-12142936D02*
X3863039Y-12123888D01*
X3863039Y-12123888D02*
X3853515Y-12085793D01*
X3853515Y-12085793D02*
X3853515Y-12038174D01*
X3853515Y-12038174D02*
X3863039Y-12000079D01*
X3863039Y-12000079D02*
X3872563Y-11981031D01*
X3872563Y-11981031D02*
X3882086Y-11971508D01*
X3882086Y-11971508D02*
X3901134Y-11961984D01*
X4053515Y-12142936D02*
X4063039Y-12152460D01*
X4063039Y-12152460D02*
X4053515Y-12161984D01*
X4053515Y-12161984D02*
X4043991Y-12152460D01*
X4043991Y-12152460D02*
X4053515Y-12142936D01*
X4053515Y-12142936D02*
X4053515Y-12161984D01*
X4186848Y-11961984D02*
X4205896Y-11961984D01*
X4205896Y-11961984D02*
X4224944Y-11971508D01*
X4224944Y-11971508D02*
X4234468Y-11981031D01*
X4234468Y-11981031D02*
X4243991Y-12000079D01*
X4243991Y-12000079D02*
X4253515Y-12038174D01*
X4253515Y-12038174D02*
X4253515Y-12085793D01*
X4253515Y-12085793D02*
X4243991Y-12123888D01*
X4243991Y-12123888D02*
X4234468Y-12142936D01*
X4234468Y-12142936D02*
X4224944Y-12152460D01*
X4224944Y-12152460D02*
X4205896Y-12161984D01*
X4205896Y-12161984D02*
X4186848Y-12161984D01*
X4186848Y-12161984D02*
X4167801Y-12152460D01*
X4167801Y-12152460D02*
X4158277Y-12142936D01*
X4158277Y-12142936D02*
X4148753Y-12123888D01*
X4148753Y-12123888D02*
X4139229Y-12085793D01*
X4139229Y-12085793D02*
X4139229Y-12038174D01*
X4139229Y-12038174D02*
X4148753Y-12000079D01*
X4148753Y-12000079D02*
X4158277Y-11981031D01*
X4158277Y-11981031D02*
X4167801Y-11971508D01*
X4167801Y-11971508D02*
X4186848Y-11961984D01*
X4320182Y-11961984D02*
X4443991Y-11961984D01*
X4443991Y-11961984D02*
X4377325Y-12038174D01*
X4377325Y-12038174D02*
X4405896Y-12038174D01*
X4405896Y-12038174D02*
X4424944Y-12047698D01*
X4424944Y-12047698D02*
X4434468Y-12057222D01*
X4434468Y-12057222D02*
X4443991Y-12076269D01*
X4443991Y-12076269D02*
X4443991Y-12123888D01*
X4443991Y-12123888D02*
X4434468Y-12142936D01*
X4434468Y-12142936D02*
X4424944Y-12152460D01*
X4424944Y-12152460D02*
X4405896Y-12161984D01*
X4405896Y-12161984D02*
X4348753Y-12161984D01*
X4348753Y-12161984D02*
X4329706Y-12152460D01*
X4329706Y-12152460D02*
X4320182Y-12142936D01*
X4510658Y-11961984D02*
X4643991Y-11961984D01*
X4643991Y-11961984D02*
X4558277Y-12161984D01*
X4805896Y-12028650D02*
X4805896Y-12161984D01*
X4758277Y-11952460D02*
X4710658Y-12095317D01*
X4710658Y-12095317D02*
X4834468Y-12095317D01*
X4901134Y-11961984D02*
X4901134Y-12000079D01*
X4977325Y-11961984D02*
X4977325Y-12000079D01*
X5272563Y-12238174D02*
X5263039Y-12228650D01*
X5263039Y-12228650D02*
X5243991Y-12200079D01*
X5243991Y-12200079D02*
X5234468Y-12181031D01*
X5234468Y-12181031D02*
X5224944Y-12152460D01*
X5224944Y-12152460D02*
X5215420Y-12104841D01*
X5215420Y-12104841D02*
X5215420Y-12066746D01*
X5215420Y-12066746D02*
X5224944Y-12019127D01*
X5224944Y-12019127D02*
X5234468Y-11990555D01*
X5234468Y-11990555D02*
X5243991Y-11971508D01*
X5243991Y-11971508D02*
X5263039Y-11942936D01*
X5263039Y-11942936D02*
X5272563Y-11933412D01*
X5434468Y-12028650D02*
X5434468Y-12161984D01*
X5386849Y-11952460D02*
X5339230Y-12095317D01*
X5339230Y-12095317D02*
X5463039Y-12095317D01*
X5691610Y-12161984D02*
X5691610Y-11961984D01*
X5777325Y-12161984D02*
X5777325Y-12057222D01*
X5777325Y-12057222D02*
X5767801Y-12038174D01*
X5767801Y-12038174D02*
X5748753Y-12028650D01*
X5748753Y-12028650D02*
X5720182Y-12028650D01*
X5720182Y-12028650D02*
X5701134Y-12038174D01*
X5701134Y-12038174D02*
X5691610Y-12047698D01*
X5901134Y-12161984D02*
X5882087Y-12152460D01*
X5882087Y-12152460D02*
X5872563Y-12142936D01*
X5872563Y-12142936D02*
X5863039Y-12123888D01*
X5863039Y-12123888D02*
X5863039Y-12066746D01*
X5863039Y-12066746D02*
X5872563Y-12047698D01*
X5872563Y-12047698D02*
X5882087Y-12038174D01*
X5882087Y-12038174D02*
X5901134Y-12028650D01*
X5901134Y-12028650D02*
X5929706Y-12028650D01*
X5929706Y-12028650D02*
X5948753Y-12038174D01*
X5948753Y-12038174D02*
X5958277Y-12047698D01*
X5958277Y-12047698D02*
X5967801Y-12066746D01*
X5967801Y-12066746D02*
X5967801Y-12123888D01*
X5967801Y-12123888D02*
X5958277Y-12142936D01*
X5958277Y-12142936D02*
X5948753Y-12152460D01*
X5948753Y-12152460D02*
X5929706Y-12161984D01*
X5929706Y-12161984D02*
X5901134Y-12161984D01*
X6082087Y-12161984D02*
X6063039Y-12152460D01*
X6063039Y-12152460D02*
X6053515Y-12133412D01*
X6053515Y-12133412D02*
X6053515Y-11961984D01*
X6234468Y-12152460D02*
X6215420Y-12161984D01*
X6215420Y-12161984D02*
X6177325Y-12161984D01*
X6177325Y-12161984D02*
X6158277Y-12152460D01*
X6158277Y-12152460D02*
X6148753Y-12133412D01*
X6148753Y-12133412D02*
X6148753Y-12057222D01*
X6148753Y-12057222D02*
X6158277Y-12038174D01*
X6158277Y-12038174D02*
X6177325Y-12028650D01*
X6177325Y-12028650D02*
X6215420Y-12028650D01*
X6215420Y-12028650D02*
X6234468Y-12038174D01*
X6234468Y-12038174D02*
X6243991Y-12057222D01*
X6243991Y-12057222D02*
X6243991Y-12076269D01*
X6243991Y-12076269D02*
X6148753Y-12095317D01*
X6320182Y-12152460D02*
X6339230Y-12161984D01*
X6339230Y-12161984D02*
X6377325Y-12161984D01*
X6377325Y-12161984D02*
X6396372Y-12152460D01*
X6396372Y-12152460D02*
X6405896Y-12133412D01*
X6405896Y-12133412D02*
X6405896Y-12123888D01*
X6405896Y-12123888D02*
X6396372Y-12104841D01*
X6396372Y-12104841D02*
X6377325Y-12095317D01*
X6377325Y-12095317D02*
X6348753Y-12095317D01*
X6348753Y-12095317D02*
X6329706Y-12085793D01*
X6329706Y-12085793D02*
X6320182Y-12066746D01*
X6320182Y-12066746D02*
X6320182Y-12057222D01*
X6320182Y-12057222D02*
X6329706Y-12038174D01*
X6329706Y-12038174D02*
X6348753Y-12028650D01*
X6348753Y-12028650D02*
X6377325Y-12028650D01*
X6377325Y-12028650D02*
X6396372Y-12038174D01*
X6472563Y-12238174D02*
X6482087Y-12228650D01*
X6482087Y-12228650D02*
X6501134Y-12200079D01*
X6501134Y-12200079D02*
X6510658Y-12181031D01*
X6510658Y-12181031D02*
X6520182Y-12152460D01*
X6520182Y-12152460D02*
X6529706Y-12104841D01*
X6529706Y-12104841D02*
X6529706Y-12066746D01*
X6529706Y-12066746D02*
X6520182Y-12019127D01*
X6520182Y-12019127D02*
X6510658Y-11990555D01*
X6510658Y-11990555D02*
X6501134Y-11971508D01*
X6501134Y-11971508D02*
X6482087Y-11942936D01*
X6482087Y-11942936D02*
X6472563Y-11933412D01*
D12*
X1682856Y-12369856D02*
X1682856Y-12299144D01*
X1612144Y-12299144D01*
X1612144Y-12369856D01*
X1682856Y-12369856D01*
D11*
X2063039Y-12425984D02*
X1948753Y-12425984D01*
X2005896Y-12425984D02*
X2005896Y-12225984D01*
X2005896Y-12225984D02*
X1986848Y-12254555D01*
X1986848Y-12254555D02*
X1967801Y-12273603D01*
X1967801Y-12273603D02*
X1948753Y-12283127D01*
X2148753Y-12406936D02*
X2158277Y-12416460D01*
X2158277Y-12416460D02*
X2148753Y-12425984D01*
X2148753Y-12425984D02*
X2139229Y-12416460D01*
X2139229Y-12416460D02*
X2148753Y-12406936D01*
X2148753Y-12406936D02*
X2148753Y-12425984D01*
X2282086Y-12225984D02*
X2301134Y-12225984D01*
X2301134Y-12225984D02*
X2320182Y-12235508D01*
X2320182Y-12235508D02*
X2329705Y-12245031D01*
X2329705Y-12245031D02*
X2339229Y-12264079D01*
X2339229Y-12264079D02*
X2348753Y-12302174D01*
X2348753Y-12302174D02*
X2348753Y-12349793D01*
X2348753Y-12349793D02*
X2339229Y-12387888D01*
X2339229Y-12387888D02*
X2329705Y-12406936D01*
X2329705Y-12406936D02*
X2320182Y-12416460D01*
X2320182Y-12416460D02*
X2301134Y-12425984D01*
X2301134Y-12425984D02*
X2282086Y-12425984D01*
X2282086Y-12425984D02*
X2263039Y-12416460D01*
X2263039Y-12416460D02*
X2253515Y-12406936D01*
X2253515Y-12406936D02*
X2243991Y-12387888D01*
X2243991Y-12387888D02*
X2234467Y-12349793D01*
X2234467Y-12349793D02*
X2234467Y-12302174D01*
X2234467Y-12302174D02*
X2243991Y-12264079D01*
X2243991Y-12264079D02*
X2253515Y-12245031D01*
X2253515Y-12245031D02*
X2263039Y-12235508D01*
X2263039Y-12235508D02*
X2282086Y-12225984D01*
X2472563Y-12225984D02*
X2491610Y-12225984D01*
X2491610Y-12225984D02*
X2510658Y-12235508D01*
X2510658Y-12235508D02*
X2520182Y-12245031D01*
X2520182Y-12245031D02*
X2529705Y-12264079D01*
X2529705Y-12264079D02*
X2539229Y-12302174D01*
X2539229Y-12302174D02*
X2539229Y-12349793D01*
X2539229Y-12349793D02*
X2529705Y-12387888D01*
X2529705Y-12387888D02*
X2520182Y-12406936D01*
X2520182Y-12406936D02*
X2510658Y-12416460D01*
X2510658Y-12416460D02*
X2491610Y-12425984D01*
X2491610Y-12425984D02*
X2472563Y-12425984D01*
X2472563Y-12425984D02*
X2453515Y-12416460D01*
X2453515Y-12416460D02*
X2443991Y-12406936D01*
X2443991Y-12406936D02*
X2434467Y-12387888D01*
X2434467Y-12387888D02*
X2424944Y-12349793D01*
X2424944Y-12349793D02*
X2424944Y-12302174D01*
X2424944Y-12302174D02*
X2434467Y-12264079D01*
X2434467Y-12264079D02*
X2443991Y-12245031D01*
X2443991Y-12245031D02*
X2453515Y-12235508D01*
X2453515Y-12235508D02*
X2472563Y-12225984D01*
X2663039Y-12225984D02*
X2682086Y-12225984D01*
X2682086Y-12225984D02*
X2701134Y-12235508D01*
X2701134Y-12235508D02*
X2710658Y-12245031D01*
X2710658Y-12245031D02*
X2720182Y-12264079D01*
X2720182Y-12264079D02*
X2729705Y-12302174D01*
X2729705Y-12302174D02*
X2729705Y-12349793D01*
X2729705Y-12349793D02*
X2720182Y-12387888D01*
X2720182Y-12387888D02*
X2710658Y-12406936D01*
X2710658Y-12406936D02*
X2701134Y-12416460D01*
X2701134Y-12416460D02*
X2682086Y-12425984D01*
X2682086Y-12425984D02*
X2663039Y-12425984D01*
X2663039Y-12425984D02*
X2643991Y-12416460D01*
X2643991Y-12416460D02*
X2634467Y-12406936D01*
X2634467Y-12406936D02*
X2624944Y-12387888D01*
X2624944Y-12387888D02*
X2615420Y-12349793D01*
X2615420Y-12349793D02*
X2615420Y-12302174D01*
X2615420Y-12302174D02*
X2624944Y-12264079D01*
X2624944Y-12264079D02*
X2634467Y-12245031D01*
X2634467Y-12245031D02*
X2643991Y-12235508D01*
X2643991Y-12235508D02*
X2663039Y-12225984D01*
X2815420Y-12425984D02*
X2815420Y-12292650D01*
X2815420Y-12311698D02*
X2824943Y-12302174D01*
X2824943Y-12302174D02*
X2843991Y-12292650D01*
X2843991Y-12292650D02*
X2872563Y-12292650D01*
X2872563Y-12292650D02*
X2891610Y-12302174D01*
X2891610Y-12302174D02*
X2901134Y-12321222D01*
X2901134Y-12321222D02*
X2901134Y-12425984D01*
X2901134Y-12321222D02*
X2910658Y-12302174D01*
X2910658Y-12302174D02*
X2929705Y-12292650D01*
X2929705Y-12292650D02*
X2958277Y-12292650D01*
X2958277Y-12292650D02*
X2977324Y-12302174D01*
X2977324Y-12302174D02*
X2986848Y-12321222D01*
X2986848Y-12321222D02*
X2986848Y-12425984D01*
X3082086Y-12425984D02*
X3082086Y-12292650D01*
X3082086Y-12311698D02*
X3091610Y-12302174D01*
X3091610Y-12302174D02*
X3110658Y-12292650D01*
X3110658Y-12292650D02*
X3139229Y-12292650D01*
X3139229Y-12292650D02*
X3158277Y-12302174D01*
X3158277Y-12302174D02*
X3167801Y-12321222D01*
X3167801Y-12321222D02*
X3167801Y-12425984D01*
X3167801Y-12321222D02*
X3177324Y-12302174D01*
X3177324Y-12302174D02*
X3196372Y-12292650D01*
X3196372Y-12292650D02*
X3224943Y-12292650D01*
X3224943Y-12292650D02*
X3243991Y-12302174D01*
X3243991Y-12302174D02*
X3253515Y-12321222D01*
X3253515Y-12321222D02*
X3253515Y-12425984D01*
X3643991Y-12216460D02*
X3472563Y-12473603D01*
X3901134Y-12225984D02*
X3920182Y-12225984D01*
X3920182Y-12225984D02*
X3939229Y-12235508D01*
X3939229Y-12235508D02*
X3948753Y-12245031D01*
X3948753Y-12245031D02*
X3958277Y-12264079D01*
X3958277Y-12264079D02*
X3967801Y-12302174D01*
X3967801Y-12302174D02*
X3967801Y-12349793D01*
X3967801Y-12349793D02*
X3958277Y-12387888D01*
X3958277Y-12387888D02*
X3948753Y-12406936D01*
X3948753Y-12406936D02*
X3939229Y-12416460D01*
X3939229Y-12416460D02*
X3920182Y-12425984D01*
X3920182Y-12425984D02*
X3901134Y-12425984D01*
X3901134Y-12425984D02*
X3882086Y-12416460D01*
X3882086Y-12416460D02*
X3872563Y-12406936D01*
X3872563Y-12406936D02*
X3863039Y-12387888D01*
X3863039Y-12387888D02*
X3853515Y-12349793D01*
X3853515Y-12349793D02*
X3853515Y-12302174D01*
X3853515Y-12302174D02*
X3863039Y-12264079D01*
X3863039Y-12264079D02*
X3872563Y-12245031D01*
X3872563Y-12245031D02*
X3882086Y-12235508D01*
X3882086Y-12235508D02*
X3901134Y-12225984D01*
X4053515Y-12406936D02*
X4063039Y-12416460D01*
X4063039Y-12416460D02*
X4053515Y-12425984D01*
X4053515Y-12425984D02*
X4043991Y-12416460D01*
X4043991Y-12416460D02*
X4053515Y-12406936D01*
X4053515Y-12406936D02*
X4053515Y-12425984D01*
X4186848Y-12225984D02*
X4205896Y-12225984D01*
X4205896Y-12225984D02*
X4224944Y-12235508D01*
X4224944Y-12235508D02*
X4234468Y-12245031D01*
X4234468Y-12245031D02*
X4243991Y-12264079D01*
X4243991Y-12264079D02*
X4253515Y-12302174D01*
X4253515Y-12302174D02*
X4253515Y-12349793D01*
X4253515Y-12349793D02*
X4243991Y-12387888D01*
X4243991Y-12387888D02*
X4234468Y-12406936D01*
X4234468Y-12406936D02*
X4224944Y-12416460D01*
X4224944Y-12416460D02*
X4205896Y-12425984D01*
X4205896Y-12425984D02*
X4186848Y-12425984D01*
X4186848Y-12425984D02*
X4167801Y-12416460D01*
X4167801Y-12416460D02*
X4158277Y-12406936D01*
X4158277Y-12406936D02*
X4148753Y-12387888D01*
X4148753Y-12387888D02*
X4139229Y-12349793D01*
X4139229Y-12349793D02*
X4139229Y-12302174D01*
X4139229Y-12302174D02*
X4148753Y-12264079D01*
X4148753Y-12264079D02*
X4158277Y-12245031D01*
X4158277Y-12245031D02*
X4167801Y-12235508D01*
X4167801Y-12235508D02*
X4186848Y-12225984D01*
X4320182Y-12225984D02*
X4443991Y-12225984D01*
X4443991Y-12225984D02*
X4377325Y-12302174D01*
X4377325Y-12302174D02*
X4405896Y-12302174D01*
X4405896Y-12302174D02*
X4424944Y-12311698D01*
X4424944Y-12311698D02*
X4434468Y-12321222D01*
X4434468Y-12321222D02*
X4443991Y-12340269D01*
X4443991Y-12340269D02*
X4443991Y-12387888D01*
X4443991Y-12387888D02*
X4434468Y-12406936D01*
X4434468Y-12406936D02*
X4424944Y-12416460D01*
X4424944Y-12416460D02*
X4405896Y-12425984D01*
X4405896Y-12425984D02*
X4348753Y-12425984D01*
X4348753Y-12425984D02*
X4329706Y-12416460D01*
X4329706Y-12416460D02*
X4320182Y-12406936D01*
X4539229Y-12425984D02*
X4577325Y-12425984D01*
X4577325Y-12425984D02*
X4596372Y-12416460D01*
X4596372Y-12416460D02*
X4605896Y-12406936D01*
X4605896Y-12406936D02*
X4624944Y-12378365D01*
X4624944Y-12378365D02*
X4634468Y-12340269D01*
X4634468Y-12340269D02*
X4634468Y-12264079D01*
X4634468Y-12264079D02*
X4624944Y-12245031D01*
X4624944Y-12245031D02*
X4615420Y-12235508D01*
X4615420Y-12235508D02*
X4596372Y-12225984D01*
X4596372Y-12225984D02*
X4558277Y-12225984D01*
X4558277Y-12225984D02*
X4539229Y-12235508D01*
X4539229Y-12235508D02*
X4529706Y-12245031D01*
X4529706Y-12245031D02*
X4520182Y-12264079D01*
X4520182Y-12264079D02*
X4520182Y-12311698D01*
X4520182Y-12311698D02*
X4529706Y-12330746D01*
X4529706Y-12330746D02*
X4539229Y-12340269D01*
X4539229Y-12340269D02*
X4558277Y-12349793D01*
X4558277Y-12349793D02*
X4596372Y-12349793D01*
X4596372Y-12349793D02*
X4615420Y-12340269D01*
X4615420Y-12340269D02*
X4624944Y-12330746D01*
X4624944Y-12330746D02*
X4634468Y-12311698D01*
X4805896Y-12292650D02*
X4805896Y-12425984D01*
X4758277Y-12216460D02*
X4710658Y-12359317D01*
X4710658Y-12359317D02*
X4834468Y-12359317D01*
X4901134Y-12225984D02*
X4901134Y-12264079D01*
X4977325Y-12225984D02*
X4977325Y-12264079D01*
X5272563Y-12502174D02*
X5263039Y-12492650D01*
X5263039Y-12492650D02*
X5243991Y-12464079D01*
X5243991Y-12464079D02*
X5234468Y-12445031D01*
X5234468Y-12445031D02*
X5224944Y-12416460D01*
X5224944Y-12416460D02*
X5215420Y-12368841D01*
X5215420Y-12368841D02*
X5215420Y-12330746D01*
X5215420Y-12330746D02*
X5224944Y-12283127D01*
X5224944Y-12283127D02*
X5234468Y-12254555D01*
X5234468Y-12254555D02*
X5243991Y-12235508D01*
X5243991Y-12235508D02*
X5263039Y-12206936D01*
X5263039Y-12206936D02*
X5272563Y-12197412D01*
X5453515Y-12425984D02*
X5339230Y-12425984D01*
X5396372Y-12425984D02*
X5396372Y-12225984D01*
X5396372Y-12225984D02*
X5377325Y-12254555D01*
X5377325Y-12254555D02*
X5358277Y-12273603D01*
X5358277Y-12273603D02*
X5339230Y-12283127D01*
X5643991Y-12425984D02*
X5529706Y-12425984D01*
X5586849Y-12425984D02*
X5586849Y-12225984D01*
X5586849Y-12225984D02*
X5567801Y-12254555D01*
X5567801Y-12254555D02*
X5548753Y-12273603D01*
X5548753Y-12273603D02*
X5529706Y-12283127D01*
X5739229Y-12425984D02*
X5777325Y-12425984D01*
X5777325Y-12425984D02*
X5796372Y-12416460D01*
X5796372Y-12416460D02*
X5805896Y-12406936D01*
X5805896Y-12406936D02*
X5824944Y-12378365D01*
X5824944Y-12378365D02*
X5834468Y-12340269D01*
X5834468Y-12340269D02*
X5834468Y-12264079D01*
X5834468Y-12264079D02*
X5824944Y-12245031D01*
X5824944Y-12245031D02*
X5815420Y-12235508D01*
X5815420Y-12235508D02*
X5796372Y-12225984D01*
X5796372Y-12225984D02*
X5758277Y-12225984D01*
X5758277Y-12225984D02*
X5739229Y-12235508D01*
X5739229Y-12235508D02*
X5729706Y-12245031D01*
X5729706Y-12245031D02*
X5720182Y-12264079D01*
X5720182Y-12264079D02*
X5720182Y-12311698D01*
X5720182Y-12311698D02*
X5729706Y-12330746D01*
X5729706Y-12330746D02*
X5739229Y-12340269D01*
X5739229Y-12340269D02*
X5758277Y-12349793D01*
X5758277Y-12349793D02*
X5796372Y-12349793D01*
X5796372Y-12349793D02*
X5815420Y-12340269D01*
X5815420Y-12340269D02*
X5824944Y-12330746D01*
X5824944Y-12330746D02*
X5834468Y-12311698D01*
X6072563Y-12425984D02*
X6072563Y-12225984D01*
X6158277Y-12425984D02*
X6158277Y-12321222D01*
X6158277Y-12321222D02*
X6148753Y-12302174D01*
X6148753Y-12302174D02*
X6129706Y-12292650D01*
X6129706Y-12292650D02*
X6101134Y-12292650D01*
X6101134Y-12292650D02*
X6082087Y-12302174D01*
X6082087Y-12302174D02*
X6072563Y-12311698D01*
X6282087Y-12425984D02*
X6263039Y-12416460D01*
X6263039Y-12416460D02*
X6253515Y-12406936D01*
X6253515Y-12406936D02*
X6243991Y-12387888D01*
X6243991Y-12387888D02*
X6243991Y-12330746D01*
X6243991Y-12330746D02*
X6253515Y-12311698D01*
X6253515Y-12311698D02*
X6263039Y-12302174D01*
X6263039Y-12302174D02*
X6282087Y-12292650D01*
X6282087Y-12292650D02*
X6310658Y-12292650D01*
X6310658Y-12292650D02*
X6329706Y-12302174D01*
X6329706Y-12302174D02*
X6339230Y-12311698D01*
X6339230Y-12311698D02*
X6348753Y-12330746D01*
X6348753Y-12330746D02*
X6348753Y-12387888D01*
X6348753Y-12387888D02*
X6339230Y-12406936D01*
X6339230Y-12406936D02*
X6329706Y-12416460D01*
X6329706Y-12416460D02*
X6310658Y-12425984D01*
X6310658Y-12425984D02*
X6282087Y-12425984D01*
X6463039Y-12425984D02*
X6443991Y-12416460D01*
X6443991Y-12416460D02*
X6434468Y-12397412D01*
X6434468Y-12397412D02*
X6434468Y-12225984D01*
X6615420Y-12416460D02*
X6596372Y-12425984D01*
X6596372Y-12425984D02*
X6558277Y-12425984D01*
X6558277Y-12425984D02*
X6539230Y-12416460D01*
X6539230Y-12416460D02*
X6529706Y-12397412D01*
X6529706Y-12397412D02*
X6529706Y-12321222D01*
X6529706Y-12321222D02*
X6539230Y-12302174D01*
X6539230Y-12302174D02*
X6558277Y-12292650D01*
X6558277Y-12292650D02*
X6596372Y-12292650D01*
X6596372Y-12292650D02*
X6615420Y-12302174D01*
X6615420Y-12302174D02*
X6624944Y-12321222D01*
X6624944Y-12321222D02*
X6624944Y-12340269D01*
X6624944Y-12340269D02*
X6529706Y-12359317D01*
X6701134Y-12416460D02*
X6720182Y-12425984D01*
X6720182Y-12425984D02*
X6758277Y-12425984D01*
X6758277Y-12425984D02*
X6777325Y-12416460D01*
X6777325Y-12416460D02*
X6786849Y-12397412D01*
X6786849Y-12397412D02*
X6786849Y-12387888D01*
X6786849Y-12387888D02*
X6777325Y-12368841D01*
X6777325Y-12368841D02*
X6758277Y-12359317D01*
X6758277Y-12359317D02*
X6729706Y-12359317D01*
X6729706Y-12359317D02*
X6710658Y-12349793D01*
X6710658Y-12349793D02*
X6701134Y-12330746D01*
X6701134Y-12330746D02*
X6701134Y-12321222D01*
X6701134Y-12321222D02*
X6710658Y-12302174D01*
X6710658Y-12302174D02*
X6729706Y-12292650D01*
X6729706Y-12292650D02*
X6758277Y-12292650D01*
X6758277Y-12292650D02*
X6777325Y-12302174D01*
X6853515Y-12502174D02*
X6863039Y-12492650D01*
X6863039Y-12492650D02*
X6882087Y-12464079D01*
X6882087Y-12464079D02*
X6891611Y-12445031D01*
X6891611Y-12445031D02*
X6901134Y-12416460D01*
X6901134Y-12416460D02*
X6910658Y-12368841D01*
X6910658Y-12368841D02*
X6910658Y-12330746D01*
X6910658Y-12330746D02*
X6901134Y-12283127D01*
X6901134Y-12283127D02*
X6891611Y-12254555D01*
X6891611Y-12254555D02*
X6882087Y-12235508D01*
X6882087Y-12235508D02*
X6863039Y-12206936D01*
X6863039Y-12206936D02*
X6853515Y-12197412D01*
D13*
X1617500Y-12678500D02*
X1697500Y-12598500D01*
X1617500Y-12518500D01*
X1537500Y-12598500D01*
X1617500Y-12678500D01*
D11*
X2063039Y-12689984D02*
X1948753Y-12689984D01*
X2005896Y-12689984D02*
X2005896Y-12489984D01*
X2005896Y-12489984D02*
X1986848Y-12518555D01*
X1986848Y-12518555D02*
X1967801Y-12537603D01*
X1967801Y-12537603D02*
X1948753Y-12547127D01*
X2148753Y-12670936D02*
X2158277Y-12680460D01*
X2158277Y-12680460D02*
X2148753Y-12689984D01*
X2148753Y-12689984D02*
X2139229Y-12680460D01*
X2139229Y-12680460D02*
X2148753Y-12670936D01*
X2148753Y-12670936D02*
X2148753Y-12689984D01*
X2329705Y-12489984D02*
X2291610Y-12489984D01*
X2291610Y-12489984D02*
X2272563Y-12499508D01*
X2272563Y-12499508D02*
X2263039Y-12509031D01*
X2263039Y-12509031D02*
X2243991Y-12537603D01*
X2243991Y-12537603D02*
X2234467Y-12575698D01*
X2234467Y-12575698D02*
X2234467Y-12651888D01*
X2234467Y-12651888D02*
X2243991Y-12670936D01*
X2243991Y-12670936D02*
X2253515Y-12680460D01*
X2253515Y-12680460D02*
X2272563Y-12689984D01*
X2272563Y-12689984D02*
X2310658Y-12689984D01*
X2310658Y-12689984D02*
X2329705Y-12680460D01*
X2329705Y-12680460D02*
X2339229Y-12670936D01*
X2339229Y-12670936D02*
X2348753Y-12651888D01*
X2348753Y-12651888D02*
X2348753Y-12604269D01*
X2348753Y-12604269D02*
X2339229Y-12585222D01*
X2339229Y-12585222D02*
X2329705Y-12575698D01*
X2329705Y-12575698D02*
X2310658Y-12566174D01*
X2310658Y-12566174D02*
X2272563Y-12566174D01*
X2272563Y-12566174D02*
X2253515Y-12575698D01*
X2253515Y-12575698D02*
X2243991Y-12585222D01*
X2243991Y-12585222D02*
X2234467Y-12604269D01*
X2472563Y-12489984D02*
X2491610Y-12489984D01*
X2491610Y-12489984D02*
X2510658Y-12499508D01*
X2510658Y-12499508D02*
X2520182Y-12509031D01*
X2520182Y-12509031D02*
X2529705Y-12528079D01*
X2529705Y-12528079D02*
X2539229Y-12566174D01*
X2539229Y-12566174D02*
X2539229Y-12613793D01*
X2539229Y-12613793D02*
X2529705Y-12651888D01*
X2529705Y-12651888D02*
X2520182Y-12670936D01*
X2520182Y-12670936D02*
X2510658Y-12680460D01*
X2510658Y-12680460D02*
X2491610Y-12689984D01*
X2491610Y-12689984D02*
X2472563Y-12689984D01*
X2472563Y-12689984D02*
X2453515Y-12680460D01*
X2453515Y-12680460D02*
X2443991Y-12670936D01*
X2443991Y-12670936D02*
X2434467Y-12651888D01*
X2434467Y-12651888D02*
X2424944Y-12613793D01*
X2424944Y-12613793D02*
X2424944Y-12566174D01*
X2424944Y-12566174D02*
X2434467Y-12528079D01*
X2434467Y-12528079D02*
X2443991Y-12509031D01*
X2443991Y-12509031D02*
X2453515Y-12499508D01*
X2453515Y-12499508D02*
X2472563Y-12489984D01*
X2663039Y-12489984D02*
X2682086Y-12489984D01*
X2682086Y-12489984D02*
X2701134Y-12499508D01*
X2701134Y-12499508D02*
X2710658Y-12509031D01*
X2710658Y-12509031D02*
X2720182Y-12528079D01*
X2720182Y-12528079D02*
X2729705Y-12566174D01*
X2729705Y-12566174D02*
X2729705Y-12613793D01*
X2729705Y-12613793D02*
X2720182Y-12651888D01*
X2720182Y-12651888D02*
X2710658Y-12670936D01*
X2710658Y-12670936D02*
X2701134Y-12680460D01*
X2701134Y-12680460D02*
X2682086Y-12689984D01*
X2682086Y-12689984D02*
X2663039Y-12689984D01*
X2663039Y-12689984D02*
X2643991Y-12680460D01*
X2643991Y-12680460D02*
X2634467Y-12670936D01*
X2634467Y-12670936D02*
X2624944Y-12651888D01*
X2624944Y-12651888D02*
X2615420Y-12613793D01*
X2615420Y-12613793D02*
X2615420Y-12566174D01*
X2615420Y-12566174D02*
X2624944Y-12528079D01*
X2624944Y-12528079D02*
X2634467Y-12509031D01*
X2634467Y-12509031D02*
X2643991Y-12499508D01*
X2643991Y-12499508D02*
X2663039Y-12489984D01*
X2815420Y-12689984D02*
X2815420Y-12556650D01*
X2815420Y-12575698D02*
X2824943Y-12566174D01*
X2824943Y-12566174D02*
X2843991Y-12556650D01*
X2843991Y-12556650D02*
X2872563Y-12556650D01*
X2872563Y-12556650D02*
X2891610Y-12566174D01*
X2891610Y-12566174D02*
X2901134Y-12585222D01*
X2901134Y-12585222D02*
X2901134Y-12689984D01*
X2901134Y-12585222D02*
X2910658Y-12566174D01*
X2910658Y-12566174D02*
X2929705Y-12556650D01*
X2929705Y-12556650D02*
X2958277Y-12556650D01*
X2958277Y-12556650D02*
X2977324Y-12566174D01*
X2977324Y-12566174D02*
X2986848Y-12585222D01*
X2986848Y-12585222D02*
X2986848Y-12689984D01*
X3082086Y-12689984D02*
X3082086Y-12556650D01*
X3082086Y-12575698D02*
X3091610Y-12566174D01*
X3091610Y-12566174D02*
X3110658Y-12556650D01*
X3110658Y-12556650D02*
X3139229Y-12556650D01*
X3139229Y-12556650D02*
X3158277Y-12566174D01*
X3158277Y-12566174D02*
X3167801Y-12585222D01*
X3167801Y-12585222D02*
X3167801Y-12689984D01*
X3167801Y-12585222D02*
X3177324Y-12566174D01*
X3177324Y-12566174D02*
X3196372Y-12556650D01*
X3196372Y-12556650D02*
X3224943Y-12556650D01*
X3224943Y-12556650D02*
X3243991Y-12566174D01*
X3243991Y-12566174D02*
X3253515Y-12585222D01*
X3253515Y-12585222D02*
X3253515Y-12689984D01*
X3643991Y-12480460D02*
X3472563Y-12737603D01*
X3901134Y-12489984D02*
X3920182Y-12489984D01*
X3920182Y-12489984D02*
X3939229Y-12499508D01*
X3939229Y-12499508D02*
X3948753Y-12509031D01*
X3948753Y-12509031D02*
X3958277Y-12528079D01*
X3958277Y-12528079D02*
X3967801Y-12566174D01*
X3967801Y-12566174D02*
X3967801Y-12613793D01*
X3967801Y-12613793D02*
X3958277Y-12651888D01*
X3958277Y-12651888D02*
X3948753Y-12670936D01*
X3948753Y-12670936D02*
X3939229Y-12680460D01*
X3939229Y-12680460D02*
X3920182Y-12689984D01*
X3920182Y-12689984D02*
X3901134Y-12689984D01*
X3901134Y-12689984D02*
X3882086Y-12680460D01*
X3882086Y-12680460D02*
X3872563Y-12670936D01*
X3872563Y-12670936D02*
X3863039Y-12651888D01*
X3863039Y-12651888D02*
X3853515Y-12613793D01*
X3853515Y-12613793D02*
X3853515Y-12566174D01*
X3853515Y-12566174D02*
X3863039Y-12528079D01*
X3863039Y-12528079D02*
X3872563Y-12509031D01*
X3872563Y-12509031D02*
X3882086Y-12499508D01*
X3882086Y-12499508D02*
X3901134Y-12489984D01*
X4053515Y-12670936D02*
X4063039Y-12680460D01*
X4063039Y-12680460D02*
X4053515Y-12689984D01*
X4053515Y-12689984D02*
X4043991Y-12680460D01*
X4043991Y-12680460D02*
X4053515Y-12670936D01*
X4053515Y-12670936D02*
X4053515Y-12689984D01*
X4186848Y-12489984D02*
X4205896Y-12489984D01*
X4205896Y-12489984D02*
X4224944Y-12499508D01*
X4224944Y-12499508D02*
X4234468Y-12509031D01*
X4234468Y-12509031D02*
X4243991Y-12528079D01*
X4243991Y-12528079D02*
X4253515Y-12566174D01*
X4253515Y-12566174D02*
X4253515Y-12613793D01*
X4253515Y-12613793D02*
X4243991Y-12651888D01*
X4243991Y-12651888D02*
X4234468Y-12670936D01*
X4234468Y-12670936D02*
X4224944Y-12680460D01*
X4224944Y-12680460D02*
X4205896Y-12689984D01*
X4205896Y-12689984D02*
X4186848Y-12689984D01*
X4186848Y-12689984D02*
X4167801Y-12680460D01*
X4167801Y-12680460D02*
X4158277Y-12670936D01*
X4158277Y-12670936D02*
X4148753Y-12651888D01*
X4148753Y-12651888D02*
X4139229Y-12613793D01*
X4139229Y-12613793D02*
X4139229Y-12566174D01*
X4139229Y-12566174D02*
X4148753Y-12528079D01*
X4148753Y-12528079D02*
X4158277Y-12509031D01*
X4158277Y-12509031D02*
X4167801Y-12499508D01*
X4167801Y-12499508D02*
X4186848Y-12489984D01*
X4424944Y-12489984D02*
X4386848Y-12489984D01*
X4386848Y-12489984D02*
X4367801Y-12499508D01*
X4367801Y-12499508D02*
X4358277Y-12509031D01*
X4358277Y-12509031D02*
X4339229Y-12537603D01*
X4339229Y-12537603D02*
X4329706Y-12575698D01*
X4329706Y-12575698D02*
X4329706Y-12651888D01*
X4329706Y-12651888D02*
X4339229Y-12670936D01*
X4339229Y-12670936D02*
X4348753Y-12680460D01*
X4348753Y-12680460D02*
X4367801Y-12689984D01*
X4367801Y-12689984D02*
X4405896Y-12689984D01*
X4405896Y-12689984D02*
X4424944Y-12680460D01*
X4424944Y-12680460D02*
X4434468Y-12670936D01*
X4434468Y-12670936D02*
X4443991Y-12651888D01*
X4443991Y-12651888D02*
X4443991Y-12604269D01*
X4443991Y-12604269D02*
X4434468Y-12585222D01*
X4434468Y-12585222D02*
X4424944Y-12575698D01*
X4424944Y-12575698D02*
X4405896Y-12566174D01*
X4405896Y-12566174D02*
X4367801Y-12566174D01*
X4367801Y-12566174D02*
X4348753Y-12575698D01*
X4348753Y-12575698D02*
X4339229Y-12585222D01*
X4339229Y-12585222D02*
X4329706Y-12604269D01*
X4510658Y-12489984D02*
X4634468Y-12489984D01*
X4634468Y-12489984D02*
X4567801Y-12566174D01*
X4567801Y-12566174D02*
X4596372Y-12566174D01*
X4596372Y-12566174D02*
X4615420Y-12575698D01*
X4615420Y-12575698D02*
X4624944Y-12585222D01*
X4624944Y-12585222D02*
X4634468Y-12604269D01*
X4634468Y-12604269D02*
X4634468Y-12651888D01*
X4634468Y-12651888D02*
X4624944Y-12670936D01*
X4624944Y-12670936D02*
X4615420Y-12680460D01*
X4615420Y-12680460D02*
X4596372Y-12689984D01*
X4596372Y-12689984D02*
X4539229Y-12689984D01*
X4539229Y-12689984D02*
X4520182Y-12680460D01*
X4520182Y-12680460D02*
X4510658Y-12670936D01*
X4758277Y-12489984D02*
X4777325Y-12489984D01*
X4777325Y-12489984D02*
X4796372Y-12499508D01*
X4796372Y-12499508D02*
X4805896Y-12509031D01*
X4805896Y-12509031D02*
X4815420Y-12528079D01*
X4815420Y-12528079D02*
X4824944Y-12566174D01*
X4824944Y-12566174D02*
X4824944Y-12613793D01*
X4824944Y-12613793D02*
X4815420Y-12651888D01*
X4815420Y-12651888D02*
X4805896Y-12670936D01*
X4805896Y-12670936D02*
X4796372Y-12680460D01*
X4796372Y-12680460D02*
X4777325Y-12689984D01*
X4777325Y-12689984D02*
X4758277Y-12689984D01*
X4758277Y-12689984D02*
X4739229Y-12680460D01*
X4739229Y-12680460D02*
X4729706Y-12670936D01*
X4729706Y-12670936D02*
X4720182Y-12651888D01*
X4720182Y-12651888D02*
X4710658Y-12613793D01*
X4710658Y-12613793D02*
X4710658Y-12566174D01*
X4710658Y-12566174D02*
X4720182Y-12528079D01*
X4720182Y-12528079D02*
X4729706Y-12509031D01*
X4729706Y-12509031D02*
X4739229Y-12499508D01*
X4739229Y-12499508D02*
X4758277Y-12489984D01*
X4901134Y-12489984D02*
X4901134Y-12528079D01*
X4977325Y-12489984D02*
X4977325Y-12528079D01*
X5272563Y-12766174D02*
X5263039Y-12756650D01*
X5263039Y-12756650D02*
X5243991Y-12728079D01*
X5243991Y-12728079D02*
X5234468Y-12709031D01*
X5234468Y-12709031D02*
X5224944Y-12680460D01*
X5224944Y-12680460D02*
X5215420Y-12632841D01*
X5215420Y-12632841D02*
X5215420Y-12594746D01*
X5215420Y-12594746D02*
X5224944Y-12547127D01*
X5224944Y-12547127D02*
X5234468Y-12518555D01*
X5234468Y-12518555D02*
X5243991Y-12499508D01*
X5243991Y-12499508D02*
X5263039Y-12470936D01*
X5263039Y-12470936D02*
X5272563Y-12461412D01*
X5434468Y-12556650D02*
X5434468Y-12689984D01*
X5386849Y-12480460D02*
X5339230Y-12623317D01*
X5339230Y-12623317D02*
X5463039Y-12623317D01*
X5691610Y-12689984D02*
X5691610Y-12489984D01*
X5777325Y-12689984D02*
X5777325Y-12585222D01*
X5777325Y-12585222D02*
X5767801Y-12566174D01*
X5767801Y-12566174D02*
X5748753Y-12556650D01*
X5748753Y-12556650D02*
X5720182Y-12556650D01*
X5720182Y-12556650D02*
X5701134Y-12566174D01*
X5701134Y-12566174D02*
X5691610Y-12575698D01*
X5901134Y-12689984D02*
X5882087Y-12680460D01*
X5882087Y-12680460D02*
X5872563Y-12670936D01*
X5872563Y-12670936D02*
X5863039Y-12651888D01*
X5863039Y-12651888D02*
X5863039Y-12594746D01*
X5863039Y-12594746D02*
X5872563Y-12575698D01*
X5872563Y-12575698D02*
X5882087Y-12566174D01*
X5882087Y-12566174D02*
X5901134Y-12556650D01*
X5901134Y-12556650D02*
X5929706Y-12556650D01*
X5929706Y-12556650D02*
X5948753Y-12566174D01*
X5948753Y-12566174D02*
X5958277Y-12575698D01*
X5958277Y-12575698D02*
X5967801Y-12594746D01*
X5967801Y-12594746D02*
X5967801Y-12651888D01*
X5967801Y-12651888D02*
X5958277Y-12670936D01*
X5958277Y-12670936D02*
X5948753Y-12680460D01*
X5948753Y-12680460D02*
X5929706Y-12689984D01*
X5929706Y-12689984D02*
X5901134Y-12689984D01*
X6082087Y-12689984D02*
X6063039Y-12680460D01*
X6063039Y-12680460D02*
X6053515Y-12661412D01*
X6053515Y-12661412D02*
X6053515Y-12489984D01*
X6234468Y-12680460D02*
X6215420Y-12689984D01*
X6215420Y-12689984D02*
X6177325Y-12689984D01*
X6177325Y-12689984D02*
X6158277Y-12680460D01*
X6158277Y-12680460D02*
X6148753Y-12661412D01*
X6148753Y-12661412D02*
X6148753Y-12585222D01*
X6148753Y-12585222D02*
X6158277Y-12566174D01*
X6158277Y-12566174D02*
X6177325Y-12556650D01*
X6177325Y-12556650D02*
X6215420Y-12556650D01*
X6215420Y-12556650D02*
X6234468Y-12566174D01*
X6234468Y-12566174D02*
X6243991Y-12585222D01*
X6243991Y-12585222D02*
X6243991Y-12604269D01*
X6243991Y-12604269D02*
X6148753Y-12623317D01*
X6320182Y-12680460D02*
X6339230Y-12689984D01*
X6339230Y-12689984D02*
X6377325Y-12689984D01*
X6377325Y-12689984D02*
X6396372Y-12680460D01*
X6396372Y-12680460D02*
X6405896Y-12661412D01*
X6405896Y-12661412D02*
X6405896Y-12651888D01*
X6405896Y-12651888D02*
X6396372Y-12632841D01*
X6396372Y-12632841D02*
X6377325Y-12623317D01*
X6377325Y-12623317D02*
X6348753Y-12623317D01*
X6348753Y-12623317D02*
X6329706Y-12613793D01*
X6329706Y-12613793D02*
X6320182Y-12594746D01*
X6320182Y-12594746D02*
X6320182Y-12585222D01*
X6320182Y-12585222D02*
X6329706Y-12566174D01*
X6329706Y-12566174D02*
X6348753Y-12556650D01*
X6348753Y-12556650D02*
X6377325Y-12556650D01*
X6377325Y-12556650D02*
X6396372Y-12566174D01*
X6472563Y-12766174D02*
X6482087Y-12756650D01*
X6482087Y-12756650D02*
X6501134Y-12728079D01*
X6501134Y-12728079D02*
X6510658Y-12709031D01*
X6510658Y-12709031D02*
X6520182Y-12680460D01*
X6520182Y-12680460D02*
X6529706Y-12632841D01*
X6529706Y-12632841D02*
X6529706Y-12594746D01*
X6529706Y-12594746D02*
X6520182Y-12547127D01*
X6520182Y-12547127D02*
X6510658Y-12518555D01*
X6510658Y-12518555D02*
X6501134Y-12499508D01*
X6501134Y-12499508D02*
X6482087Y-12470936D01*
X6482087Y-12470936D02*
X6472563Y-12461412D01*
X1497500Y-12778500D02*
X1697500Y-12978500D01*
X1697500Y-12778500D02*
X1497500Y-12978500D01*
X1697500Y-12878500D02*
G75*
G02*
X1497500Y-12878500I-100000J0D01*
G01*
X1497500Y-12878500D02*
G75*
G02*
X1697500Y-12878500I100000J0D01*
G01*
X1948753Y-12789031D02*
X1958277Y-12779508D01*
X1958277Y-12779508D02*
X1977324Y-12769984D01*
X1977324Y-12769984D02*
X2024943Y-12769984D01*
X2024943Y-12769984D02*
X2043991Y-12779508D01*
X2043991Y-12779508D02*
X2053515Y-12789031D01*
X2053515Y-12789031D02*
X2063039Y-12808079D01*
X2063039Y-12808079D02*
X2063039Y-12827127D01*
X2063039Y-12827127D02*
X2053515Y-12855698D01*
X2053515Y-12855698D02*
X1939229Y-12969984D01*
X1939229Y-12969984D02*
X2063039Y-12969984D01*
X2148753Y-12950936D02*
X2158277Y-12960460D01*
X2158277Y-12960460D02*
X2148753Y-12969984D01*
X2148753Y-12969984D02*
X2139229Y-12960460D01*
X2139229Y-12960460D02*
X2148753Y-12950936D01*
X2148753Y-12950936D02*
X2148753Y-12969984D01*
X2282086Y-12769984D02*
X2301134Y-12769984D01*
X2301134Y-12769984D02*
X2320182Y-12779508D01*
X2320182Y-12779508D02*
X2329705Y-12789031D01*
X2329705Y-12789031D02*
X2339229Y-12808079D01*
X2339229Y-12808079D02*
X2348753Y-12846174D01*
X2348753Y-12846174D02*
X2348753Y-12893793D01*
X2348753Y-12893793D02*
X2339229Y-12931888D01*
X2339229Y-12931888D02*
X2329705Y-12950936D01*
X2329705Y-12950936D02*
X2320182Y-12960460D01*
X2320182Y-12960460D02*
X2301134Y-12969984D01*
X2301134Y-12969984D02*
X2282086Y-12969984D01*
X2282086Y-12969984D02*
X2263039Y-12960460D01*
X2263039Y-12960460D02*
X2253515Y-12950936D01*
X2253515Y-12950936D02*
X2243991Y-12931888D01*
X2243991Y-12931888D02*
X2234467Y-12893793D01*
X2234467Y-12893793D02*
X2234467Y-12846174D01*
X2234467Y-12846174D02*
X2243991Y-12808079D01*
X2243991Y-12808079D02*
X2253515Y-12789031D01*
X2253515Y-12789031D02*
X2263039Y-12779508D01*
X2263039Y-12779508D02*
X2282086Y-12769984D01*
X2472563Y-12769984D02*
X2491610Y-12769984D01*
X2491610Y-12769984D02*
X2510658Y-12779508D01*
X2510658Y-12779508D02*
X2520182Y-12789031D01*
X2520182Y-12789031D02*
X2529705Y-12808079D01*
X2529705Y-12808079D02*
X2539229Y-12846174D01*
X2539229Y-12846174D02*
X2539229Y-12893793D01*
X2539229Y-12893793D02*
X2529705Y-12931888D01*
X2529705Y-12931888D02*
X2520182Y-12950936D01*
X2520182Y-12950936D02*
X2510658Y-12960460D01*
X2510658Y-12960460D02*
X2491610Y-12969984D01*
X2491610Y-12969984D02*
X2472563Y-12969984D01*
X2472563Y-12969984D02*
X2453515Y-12960460D01*
X2453515Y-12960460D02*
X2443991Y-12950936D01*
X2443991Y-12950936D02*
X2434467Y-12931888D01*
X2434467Y-12931888D02*
X2424944Y-12893793D01*
X2424944Y-12893793D02*
X2424944Y-12846174D01*
X2424944Y-12846174D02*
X2434467Y-12808079D01*
X2434467Y-12808079D02*
X2443991Y-12789031D01*
X2443991Y-12789031D02*
X2453515Y-12779508D01*
X2453515Y-12779508D02*
X2472563Y-12769984D01*
X2663039Y-12769984D02*
X2682086Y-12769984D01*
X2682086Y-12769984D02*
X2701134Y-12779508D01*
X2701134Y-12779508D02*
X2710658Y-12789031D01*
X2710658Y-12789031D02*
X2720182Y-12808079D01*
X2720182Y-12808079D02*
X2729705Y-12846174D01*
X2729705Y-12846174D02*
X2729705Y-12893793D01*
X2729705Y-12893793D02*
X2720182Y-12931888D01*
X2720182Y-12931888D02*
X2710658Y-12950936D01*
X2710658Y-12950936D02*
X2701134Y-12960460D01*
X2701134Y-12960460D02*
X2682086Y-12969984D01*
X2682086Y-12969984D02*
X2663039Y-12969984D01*
X2663039Y-12969984D02*
X2643991Y-12960460D01*
X2643991Y-12960460D02*
X2634467Y-12950936D01*
X2634467Y-12950936D02*
X2624944Y-12931888D01*
X2624944Y-12931888D02*
X2615420Y-12893793D01*
X2615420Y-12893793D02*
X2615420Y-12846174D01*
X2615420Y-12846174D02*
X2624944Y-12808079D01*
X2624944Y-12808079D02*
X2634467Y-12789031D01*
X2634467Y-12789031D02*
X2643991Y-12779508D01*
X2643991Y-12779508D02*
X2663039Y-12769984D01*
X2815420Y-12969984D02*
X2815420Y-12836650D01*
X2815420Y-12855698D02*
X2824943Y-12846174D01*
X2824943Y-12846174D02*
X2843991Y-12836650D01*
X2843991Y-12836650D02*
X2872563Y-12836650D01*
X2872563Y-12836650D02*
X2891610Y-12846174D01*
X2891610Y-12846174D02*
X2901134Y-12865222D01*
X2901134Y-12865222D02*
X2901134Y-12969984D01*
X2901134Y-12865222D02*
X2910658Y-12846174D01*
X2910658Y-12846174D02*
X2929705Y-12836650D01*
X2929705Y-12836650D02*
X2958277Y-12836650D01*
X2958277Y-12836650D02*
X2977324Y-12846174D01*
X2977324Y-12846174D02*
X2986848Y-12865222D01*
X2986848Y-12865222D02*
X2986848Y-12969984D01*
X3082086Y-12969984D02*
X3082086Y-12836650D01*
X3082086Y-12855698D02*
X3091610Y-12846174D01*
X3091610Y-12846174D02*
X3110658Y-12836650D01*
X3110658Y-12836650D02*
X3139229Y-12836650D01*
X3139229Y-12836650D02*
X3158277Y-12846174D01*
X3158277Y-12846174D02*
X3167801Y-12865222D01*
X3167801Y-12865222D02*
X3167801Y-12969984D01*
X3167801Y-12865222D02*
X3177324Y-12846174D01*
X3177324Y-12846174D02*
X3196372Y-12836650D01*
X3196372Y-12836650D02*
X3224943Y-12836650D01*
X3224943Y-12836650D02*
X3243991Y-12846174D01*
X3243991Y-12846174D02*
X3253515Y-12865222D01*
X3253515Y-12865222D02*
X3253515Y-12969984D01*
X3643991Y-12760460D02*
X3472563Y-13017603D01*
X3901134Y-12769984D02*
X3920182Y-12769984D01*
X3920182Y-12769984D02*
X3939229Y-12779508D01*
X3939229Y-12779508D02*
X3948753Y-12789031D01*
X3948753Y-12789031D02*
X3958277Y-12808079D01*
X3958277Y-12808079D02*
X3967801Y-12846174D01*
X3967801Y-12846174D02*
X3967801Y-12893793D01*
X3967801Y-12893793D02*
X3958277Y-12931888D01*
X3958277Y-12931888D02*
X3948753Y-12950936D01*
X3948753Y-12950936D02*
X3939229Y-12960460D01*
X3939229Y-12960460D02*
X3920182Y-12969984D01*
X3920182Y-12969984D02*
X3901134Y-12969984D01*
X3901134Y-12969984D02*
X3882086Y-12960460D01*
X3882086Y-12960460D02*
X3872563Y-12950936D01*
X3872563Y-12950936D02*
X3863039Y-12931888D01*
X3863039Y-12931888D02*
X3853515Y-12893793D01*
X3853515Y-12893793D02*
X3853515Y-12846174D01*
X3853515Y-12846174D02*
X3863039Y-12808079D01*
X3863039Y-12808079D02*
X3872563Y-12789031D01*
X3872563Y-12789031D02*
X3882086Y-12779508D01*
X3882086Y-12779508D02*
X3901134Y-12769984D01*
X4053515Y-12950936D02*
X4063039Y-12960460D01*
X4063039Y-12960460D02*
X4053515Y-12969984D01*
X4053515Y-12969984D02*
X4043991Y-12960460D01*
X4043991Y-12960460D02*
X4053515Y-12950936D01*
X4053515Y-12950936D02*
X4053515Y-12969984D01*
X4186848Y-12769984D02*
X4205896Y-12769984D01*
X4205896Y-12769984D02*
X4224944Y-12779508D01*
X4224944Y-12779508D02*
X4234468Y-12789031D01*
X4234468Y-12789031D02*
X4243991Y-12808079D01*
X4243991Y-12808079D02*
X4253515Y-12846174D01*
X4253515Y-12846174D02*
X4253515Y-12893793D01*
X4253515Y-12893793D02*
X4243991Y-12931888D01*
X4243991Y-12931888D02*
X4234468Y-12950936D01*
X4234468Y-12950936D02*
X4224944Y-12960460D01*
X4224944Y-12960460D02*
X4205896Y-12969984D01*
X4205896Y-12969984D02*
X4186848Y-12969984D01*
X4186848Y-12969984D02*
X4167801Y-12960460D01*
X4167801Y-12960460D02*
X4158277Y-12950936D01*
X4158277Y-12950936D02*
X4148753Y-12931888D01*
X4148753Y-12931888D02*
X4139229Y-12893793D01*
X4139229Y-12893793D02*
X4139229Y-12846174D01*
X4139229Y-12846174D02*
X4148753Y-12808079D01*
X4148753Y-12808079D02*
X4158277Y-12789031D01*
X4158277Y-12789031D02*
X4167801Y-12779508D01*
X4167801Y-12779508D02*
X4186848Y-12769984D01*
X4320182Y-12769984D02*
X4453515Y-12769984D01*
X4453515Y-12769984D02*
X4367801Y-12969984D01*
X4558277Y-12855698D02*
X4539229Y-12846174D01*
X4539229Y-12846174D02*
X4529706Y-12836650D01*
X4529706Y-12836650D02*
X4520182Y-12817603D01*
X4520182Y-12817603D02*
X4520182Y-12808079D01*
X4520182Y-12808079D02*
X4529706Y-12789031D01*
X4529706Y-12789031D02*
X4539229Y-12779508D01*
X4539229Y-12779508D02*
X4558277Y-12769984D01*
X4558277Y-12769984D02*
X4596372Y-12769984D01*
X4596372Y-12769984D02*
X4615420Y-12779508D01*
X4615420Y-12779508D02*
X4624944Y-12789031D01*
X4624944Y-12789031D02*
X4634468Y-12808079D01*
X4634468Y-12808079D02*
X4634468Y-12817603D01*
X4634468Y-12817603D02*
X4624944Y-12836650D01*
X4624944Y-12836650D02*
X4615420Y-12846174D01*
X4615420Y-12846174D02*
X4596372Y-12855698D01*
X4596372Y-12855698D02*
X4558277Y-12855698D01*
X4558277Y-12855698D02*
X4539229Y-12865222D01*
X4539229Y-12865222D02*
X4529706Y-12874746D01*
X4529706Y-12874746D02*
X4520182Y-12893793D01*
X4520182Y-12893793D02*
X4520182Y-12931888D01*
X4520182Y-12931888D02*
X4529706Y-12950936D01*
X4529706Y-12950936D02*
X4539229Y-12960460D01*
X4539229Y-12960460D02*
X4558277Y-12969984D01*
X4558277Y-12969984D02*
X4596372Y-12969984D01*
X4596372Y-12969984D02*
X4615420Y-12960460D01*
X4615420Y-12960460D02*
X4624944Y-12950936D01*
X4624944Y-12950936D02*
X4634468Y-12931888D01*
X4634468Y-12931888D02*
X4634468Y-12893793D01*
X4634468Y-12893793D02*
X4624944Y-12874746D01*
X4624944Y-12874746D02*
X4615420Y-12865222D01*
X4615420Y-12865222D02*
X4596372Y-12855698D01*
X4701134Y-12769984D02*
X4834468Y-12769984D01*
X4834468Y-12769984D02*
X4748753Y-12969984D01*
X4901134Y-12769984D02*
X4901134Y-12808079D01*
X4977325Y-12769984D02*
X4977325Y-12808079D01*
X5272563Y-13046174D02*
X5263039Y-13036650D01*
X5263039Y-13036650D02*
X5243991Y-13008079D01*
X5243991Y-13008079D02*
X5234468Y-12989031D01*
X5234468Y-12989031D02*
X5224944Y-12960460D01*
X5224944Y-12960460D02*
X5215420Y-12912841D01*
X5215420Y-12912841D02*
X5215420Y-12874746D01*
X5215420Y-12874746D02*
X5224944Y-12827127D01*
X5224944Y-12827127D02*
X5234468Y-12798555D01*
X5234468Y-12798555D02*
X5243991Y-12779508D01*
X5243991Y-12779508D02*
X5263039Y-12750936D01*
X5263039Y-12750936D02*
X5272563Y-12741412D01*
X5339230Y-12789031D02*
X5348753Y-12779508D01*
X5348753Y-12779508D02*
X5367801Y-12769984D01*
X5367801Y-12769984D02*
X5415420Y-12769984D01*
X5415420Y-12769984D02*
X5434468Y-12779508D01*
X5434468Y-12779508D02*
X5443991Y-12789031D01*
X5443991Y-12789031D02*
X5453515Y-12808079D01*
X5453515Y-12808079D02*
X5453515Y-12827127D01*
X5453515Y-12827127D02*
X5443991Y-12855698D01*
X5443991Y-12855698D02*
X5329706Y-12969984D01*
X5329706Y-12969984D02*
X5453515Y-12969984D01*
X5691610Y-12969984D02*
X5691610Y-12769984D01*
X5777325Y-12969984D02*
X5777325Y-12865222D01*
X5777325Y-12865222D02*
X5767801Y-12846174D01*
X5767801Y-12846174D02*
X5748753Y-12836650D01*
X5748753Y-12836650D02*
X5720182Y-12836650D01*
X5720182Y-12836650D02*
X5701134Y-12846174D01*
X5701134Y-12846174D02*
X5691610Y-12855698D01*
X5901134Y-12969984D02*
X5882087Y-12960460D01*
X5882087Y-12960460D02*
X5872563Y-12950936D01*
X5872563Y-12950936D02*
X5863039Y-12931888D01*
X5863039Y-12931888D02*
X5863039Y-12874746D01*
X5863039Y-12874746D02*
X5872563Y-12855698D01*
X5872563Y-12855698D02*
X5882087Y-12846174D01*
X5882087Y-12846174D02*
X5901134Y-12836650D01*
X5901134Y-12836650D02*
X5929706Y-12836650D01*
X5929706Y-12836650D02*
X5948753Y-12846174D01*
X5948753Y-12846174D02*
X5958277Y-12855698D01*
X5958277Y-12855698D02*
X5967801Y-12874746D01*
X5967801Y-12874746D02*
X5967801Y-12931888D01*
X5967801Y-12931888D02*
X5958277Y-12950936D01*
X5958277Y-12950936D02*
X5948753Y-12960460D01*
X5948753Y-12960460D02*
X5929706Y-12969984D01*
X5929706Y-12969984D02*
X5901134Y-12969984D01*
X6082087Y-12969984D02*
X6063039Y-12960460D01*
X6063039Y-12960460D02*
X6053515Y-12941412D01*
X6053515Y-12941412D02*
X6053515Y-12769984D01*
X6234468Y-12960460D02*
X6215420Y-12969984D01*
X6215420Y-12969984D02*
X6177325Y-12969984D01*
X6177325Y-12969984D02*
X6158277Y-12960460D01*
X6158277Y-12960460D02*
X6148753Y-12941412D01*
X6148753Y-12941412D02*
X6148753Y-12865222D01*
X6148753Y-12865222D02*
X6158277Y-12846174D01*
X6158277Y-12846174D02*
X6177325Y-12836650D01*
X6177325Y-12836650D02*
X6215420Y-12836650D01*
X6215420Y-12836650D02*
X6234468Y-12846174D01*
X6234468Y-12846174D02*
X6243991Y-12865222D01*
X6243991Y-12865222D02*
X6243991Y-12884269D01*
X6243991Y-12884269D02*
X6148753Y-12903317D01*
X6320182Y-12960460D02*
X6339230Y-12969984D01*
X6339230Y-12969984D02*
X6377325Y-12969984D01*
X6377325Y-12969984D02*
X6396372Y-12960460D01*
X6396372Y-12960460D02*
X6405896Y-12941412D01*
X6405896Y-12941412D02*
X6405896Y-12931888D01*
X6405896Y-12931888D02*
X6396372Y-12912841D01*
X6396372Y-12912841D02*
X6377325Y-12903317D01*
X6377325Y-12903317D02*
X6348753Y-12903317D01*
X6348753Y-12903317D02*
X6329706Y-12893793D01*
X6329706Y-12893793D02*
X6320182Y-12874746D01*
X6320182Y-12874746D02*
X6320182Y-12865222D01*
X6320182Y-12865222D02*
X6329706Y-12846174D01*
X6329706Y-12846174D02*
X6348753Y-12836650D01*
X6348753Y-12836650D02*
X6377325Y-12836650D01*
X6377325Y-12836650D02*
X6396372Y-12846174D01*
X6472563Y-13046174D02*
X6482087Y-13036650D01*
X6482087Y-13036650D02*
X6501134Y-13008079D01*
X6501134Y-13008079D02*
X6510658Y-12989031D01*
X6510658Y-12989031D02*
X6520182Y-12960460D01*
X6520182Y-12960460D02*
X6529706Y-12912841D01*
X6529706Y-12912841D02*
X6529706Y-12874746D01*
X6529706Y-12874746D02*
X6520182Y-12827127D01*
X6520182Y-12827127D02*
X6510658Y-12798555D01*
X6510658Y-12798555D02*
X6501134Y-12779508D01*
X6501134Y-12779508D02*
X6482087Y-12750936D01*
X6482087Y-12750936D02*
X6472563Y-12741412D01*
M02*
