%TF.GenerationSoftware,KiCad,Pcbnew,8.0.8*%
%TF.CreationDate,2025-02-06T19:54:35+00:00*%
%TF.ProjectId,TeensyELS,5465656e-7379-4454-9c53-2e6b69636164,rev?*%
%TF.SameCoordinates,Original*%
%TF.FileFunction,Soldermask,Top*%
%TF.FilePolarity,Negative*%
%FSLAX46Y46*%
G04 Gerber Fmt 4.6, Leading zero omitted, Abs format (unit mm)*
G04 Created by KiCad (PCBNEW 8.0.8) date 2025-02-06 19:54:35*
%MOMM*%
%LPD*%
G01*
G04 APERTURE LIST*
G04 Aperture macros list*
%AMRoundRect*
0 Rectangle with rounded corners*
0 $1 Rounding radius*
0 $2 $3 $4 $5 $6 $7 $8 $9 X,Y pos of 4 corners*
0 Add a 4 corners polygon primitive as box body*
4,1,4,$2,$3,$4,$5,$6,$7,$8,$9,$2,$3,0*
0 Add four circle primitives for the rounded corners*
1,1,$1+$1,$2,$3*
1,1,$1+$1,$4,$5*
1,1,$1+$1,$6,$7*
1,1,$1+$1,$8,$9*
0 Add four rect primitives between the rounded corners*
20,1,$1+$1,$2,$3,$4,$5,0*
20,1,$1+$1,$4,$5,$6,$7,0*
20,1,$1+$1,$6,$7,$8,$9,0*
20,1,$1+$1,$8,$9,$2,$3,0*%
G04 Aperture macros list end*
%ADD10RoundRect,0.150000X0.587500X0.150000X-0.587500X0.150000X-0.587500X-0.150000X0.587500X-0.150000X0*%
%ADD11RoundRect,0.250000X0.262500X0.450000X-0.262500X0.450000X-0.262500X-0.450000X0.262500X-0.450000X0*%
%ADD12O,1.270000X2.540000*%
%ADD13RoundRect,0.250000X-0.262500X-0.450000X0.262500X-0.450000X0.262500X0.450000X-0.262500X0.450000X0*%
%ADD14RoundRect,0.150000X-0.587500X-0.150000X0.587500X-0.150000X0.587500X0.150000X-0.587500X0.150000X0*%
%ADD15RoundRect,0.150000X-0.150000X0.587500X-0.150000X-0.587500X0.150000X-0.587500X0.150000X0.587500X0*%
%ADD16RoundRect,0.250000X-0.450000X0.262500X-0.450000X-0.262500X0.450000X-0.262500X0.450000X0.262500X0*%
%ADD17RoundRect,0.250000X0.450000X-0.262500X0.450000X0.262500X-0.450000X0.262500X-0.450000X-0.262500X0*%
%ADD18C,3.250000*%
%ADD19RoundRect,0.250000X0.725000X-0.600000X0.725000X0.600000X-0.725000X0.600000X-0.725000X-0.600000X0*%
%ADD20O,1.950000X1.700000*%
%ADD21R,2.400000X2.400000*%
%ADD22C,2.400000*%
%ADD23R,1.270000X2.540000*%
%ADD24R,1.700000X1.700000*%
%ADD25C,1.700000*%
%ADD26R,1.500000X1.500000*%
%ADD27C,1.500000*%
%ADD28C,3.000000*%
%ADD29O,1.700000X1.700000*%
%ADD30R,2.000000X2.000000*%
%ADD31C,2.000000*%
%ADD32R,2.500000X3.000000*%
G04 APERTURE END LIST*
D10*
%TO.C,Q3*%
X78175000Y-94200000D03*
X78175000Y-92300000D03*
X76300000Y-93250000D03*
%TD*%
D11*
%TO.C,R18*%
X91000000Y-69500000D03*
X89175000Y-69500000D03*
%TD*%
D12*
%TO.C,MCU1*%
X39125686Y-61924940D03*
X41665686Y-61924940D03*
X44205686Y-61924940D03*
X46745686Y-61924940D03*
X49285686Y-61924940D03*
X51825686Y-61924940D03*
X54365686Y-61924940D03*
X56905686Y-61924940D03*
X59445686Y-61924940D03*
X61985686Y-61924940D03*
X64525686Y-61924940D03*
X67065686Y-61924940D03*
X39125686Y-39064940D03*
X41665686Y-39064940D03*
X44205686Y-39064940D03*
X46745686Y-39064940D03*
X49285686Y-39064940D03*
X51825686Y-39064940D03*
X54365686Y-39064940D03*
X56905686Y-39064940D03*
X59445686Y-39064940D03*
X61985686Y-39064940D03*
X64525686Y-39064940D03*
X67065686Y-39064940D03*
%TD*%
D13*
%TO.C,R4*%
X67762500Y-92500000D03*
X69587500Y-92500000D03*
%TD*%
D14*
%TO.C,Q8*%
X93125000Y-68550000D03*
X93125000Y-70450000D03*
X95000000Y-69500000D03*
%TD*%
D15*
%TO.C,Q7*%
X98025000Y-31368750D03*
X96125000Y-31368750D03*
X97075000Y-33243750D03*
%TD*%
D16*
%TO.C,R11*%
X99000000Y-61175000D03*
X99000000Y-63000000D03*
%TD*%
D17*
%TO.C,R12*%
X94000000Y-62912500D03*
X94000000Y-61087500D03*
%TD*%
D18*
%TO.C,*%
X21500000Y-32500000D03*
%TD*%
D19*
%TO.C,J2*%
X107500000Y-79000000D03*
D20*
X107500000Y-76500000D03*
X107500000Y-74000000D03*
X107500000Y-71500000D03*
%TD*%
D21*
%TO.C,J4*%
X74420000Y-30000000D03*
D22*
X79500000Y-30000000D03*
%TD*%
D23*
%TO.C,U1*%
X22660000Y-58240000D03*
D12*
X25200000Y-58240000D03*
X27740000Y-58240000D03*
X30280000Y-58240000D03*
X32820000Y-58240000D03*
X35360000Y-58240000D03*
X37900000Y-58240000D03*
X40440000Y-58240000D03*
X42980000Y-58240000D03*
X45520000Y-58240000D03*
X48060000Y-58240000D03*
X50600000Y-58240000D03*
X53140000Y-58240000D03*
X55680000Y-58240000D03*
X58220000Y-58240000D03*
X60760000Y-58240000D03*
X63300000Y-58240000D03*
X65840000Y-58240000D03*
X68380000Y-58240000D03*
X70920000Y-58240000D03*
X73460000Y-58240000D03*
X76000000Y-58240000D03*
X78540000Y-58240000D03*
X81080000Y-58240000D03*
X81080000Y-43000000D03*
X78540000Y-43000000D03*
X76000000Y-43000000D03*
X73460000Y-43000000D03*
X70920000Y-43000000D03*
X68380000Y-43000000D03*
X65840000Y-43000000D03*
X63300000Y-43000000D03*
X60760000Y-43000000D03*
X58220000Y-43000000D03*
X55680000Y-43000000D03*
X53140000Y-43000000D03*
X50600000Y-43000000D03*
X48060000Y-43000000D03*
X45520000Y-43000000D03*
X42980000Y-43000000D03*
X40440000Y-43000000D03*
X37900000Y-43000000D03*
X35360000Y-43000000D03*
X32820000Y-43000000D03*
X30280000Y-43000000D03*
X27740000Y-43000000D03*
X25200000Y-43000000D03*
X22660000Y-43000000D03*
%TD*%
D11*
%TO.C,R7*%
X86500000Y-104500000D03*
X84675000Y-104500000D03*
%TD*%
D24*
%TO.C,SW8*%
X19500000Y-100250000D03*
D25*
X26000000Y-100250000D03*
X19500000Y-104750000D03*
X26000000Y-104750000D03*
%TD*%
D11*
%TO.C,R14*%
X101912500Y-75500000D03*
X100087500Y-75500000D03*
%TD*%
%TO.C,R1*%
X86500000Y-98500000D03*
X84675000Y-98500000D03*
%TD*%
D18*
%TO.C,*%
X108000000Y-29000000D03*
%TD*%
D13*
%TO.C,R6*%
X67762500Y-86500000D03*
X69587500Y-86500000D03*
%TD*%
D24*
%TO.C,SW6*%
X35750000Y-87750000D03*
D25*
X42250000Y-87750000D03*
X35750000Y-92250000D03*
X42250000Y-92250000D03*
%TD*%
D11*
%TO.C,R3*%
X86500000Y-92500000D03*
X84675000Y-92500000D03*
%TD*%
%TO.C,R15*%
X101912500Y-73500000D03*
X100087500Y-73500000D03*
%TD*%
D24*
%TO.C,SW1*%
X73250000Y-72250000D03*
D25*
X79750000Y-72250000D03*
X73250000Y-76750000D03*
X79750000Y-76750000D03*
%TD*%
D10*
%TO.C,Q2*%
X78175000Y-100200000D03*
X78175000Y-98300000D03*
X76300000Y-99250000D03*
%TD*%
D11*
%TO.C,R17*%
X91000000Y-75500000D03*
X89175000Y-75500000D03*
%TD*%
%TO.C,R16*%
X101912500Y-69500000D03*
X100087500Y-69500000D03*
%TD*%
D10*
%TO.C,Q5*%
X78175000Y-106200000D03*
X78175000Y-104300000D03*
X76300000Y-105250000D03*
%TD*%
D11*
%TO.C,R5*%
X86500000Y-86500000D03*
X84675000Y-86500000D03*
%TD*%
D24*
%TO.C,SW3*%
X35750000Y-75250000D03*
D25*
X42250000Y-75250000D03*
X35750000Y-79750000D03*
X42250000Y-79750000D03*
%TD*%
D14*
%TO.C,Q1*%
X93125000Y-74500000D03*
X93125000Y-76400000D03*
X95000000Y-75450000D03*
%TD*%
D16*
%TO.C,R9*%
X92500000Y-36506250D03*
X92500000Y-38331250D03*
%TD*%
D18*
%TO.C,*%
X101500000Y-106000000D03*
%TD*%
D10*
%TO.C,Q4*%
X78175000Y-88200000D03*
X78175000Y-86300000D03*
X76300000Y-87250000D03*
%TD*%
D18*
%TO.C,J1*%
X104550000Y-100715000D03*
X104550000Y-89285000D03*
D26*
X98200000Y-99445000D03*
D27*
X95660000Y-98175000D03*
X98200000Y-96905000D03*
X95660000Y-95635000D03*
X98200000Y-94365000D03*
X95660000Y-93095000D03*
X98200000Y-91825000D03*
X95660000Y-90555000D03*
D28*
X107600000Y-102850000D03*
X107600000Y-87150000D03*
%TD*%
D16*
%TO.C,R10*%
X97000000Y-36418750D03*
X97000000Y-38243750D03*
%TD*%
D24*
%TO.C,SW4*%
X52000000Y-75250000D03*
D25*
X58500000Y-75250000D03*
X52000000Y-79750000D03*
X58500000Y-79750000D03*
%TD*%
D18*
%TO.C,*%
X30500000Y-97500000D03*
%TD*%
D13*
%TO.C,R2*%
X67762500Y-98500000D03*
X69587500Y-98500000D03*
%TD*%
D24*
%TO.C,J3*%
X58040000Y-33500000D03*
D29*
X55500000Y-33500000D03*
X52960000Y-33500000D03*
X50420000Y-33500000D03*
%TD*%
D13*
%TO.C,R8*%
X67762500Y-104500000D03*
X69587500Y-104500000D03*
%TD*%
D15*
%TO.C,Q6*%
X93400000Y-31368750D03*
X91500000Y-31368750D03*
X92450000Y-33243750D03*
%TD*%
D24*
%TO.C,SW2*%
X19500000Y-75250000D03*
D25*
X26000000Y-75250000D03*
X19500000Y-79750000D03*
X26000000Y-79750000D03*
%TD*%
D27*
%TO.C,E1*%
X92500000Y-43000000D03*
X94500000Y-43000000D03*
X96500000Y-43000000D03*
X98500000Y-43000000D03*
X100500000Y-43000000D03*
D30*
X94000000Y-57500000D03*
D31*
X99000000Y-57500000D03*
X96500000Y-57500000D03*
D32*
X90900000Y-50000000D03*
X102100000Y-50000000D03*
%TD*%
D11*
%TO.C,R13*%
X101912500Y-71500000D03*
X100087500Y-71500000D03*
%TD*%
D24*
%TO.C,SW7*%
X52000000Y-87750000D03*
D25*
X58500000Y-87750000D03*
X52000000Y-92250000D03*
X58500000Y-92250000D03*
%TD*%
D24*
%TO.C,SW5*%
X19500000Y-87750000D03*
D25*
X26000000Y-87750000D03*
X19500000Y-92250000D03*
X26000000Y-92250000D03*
%TD*%
D24*
%TO.C,SW9*%
X35750000Y-100250000D03*
D25*
X42250000Y-100250000D03*
X35750000Y-104750000D03*
X42250000Y-104750000D03*
%TD*%
D24*
%TO.C,SW10*%
X52000000Y-100250000D03*
D25*
X58500000Y-100250000D03*
X52000000Y-104750000D03*
X58500000Y-104750000D03*
%TD*%
M02*
