%TF.GenerationSoftware,KiCad,Pcbnew,8.0.8*%
%TF.CreationDate,2025-02-06T19:54:35+00:00*%
%TF.ProjectId,TeensyELS,5465656e-7379-4454-9c53-2e6b69636164,rev?*%
%TF.SameCoordinates,Original*%
%TF.FileFunction,Copper,L4,Bot*%
%TF.FilePolarity,Positive*%
%FSLAX46Y46*%
G04 Gerber Fmt 4.6, Leading zero omitted, Abs format (unit mm)*
G04 Created by KiCad (PCBNEW 8.0.8) date 2025-02-06 19:54:35*
%MOMM*%
%LPD*%
G01*
G04 APERTURE LIST*
G04 Aperture macros list*
%AMRoundRect*
0 Rectangle with rounded corners*
0 $1 Rounding radius*
0 $2 $3 $4 $5 $6 $7 $8 $9 X,Y pos of 4 corners*
0 Add a 4 corners polygon primitive as box body*
4,1,4,$2,$3,$4,$5,$6,$7,$8,$9,$2,$3,0*
0 Add four circle primitives for the rounded corners*
1,1,$1+$1,$2,$3*
1,1,$1+$1,$4,$5*
1,1,$1+$1,$6,$7*
1,1,$1+$1,$8,$9*
0 Add four rect primitives between the rounded corners*
20,1,$1+$1,$2,$3,$4,$5,0*
20,1,$1+$1,$4,$5,$6,$7,0*
20,1,$1+$1,$6,$7,$8,$9,0*
20,1,$1+$1,$8,$9,$2,$3,0*%
G04 Aperture macros list end*
%TA.AperFunction,ComponentPad*%
%ADD10O,1.270000X2.540000*%
%TD*%
%TA.AperFunction,ComponentPad*%
%ADD11RoundRect,0.250000X0.725000X-0.600000X0.725000X0.600000X-0.725000X0.600000X-0.725000X-0.600000X0*%
%TD*%
%TA.AperFunction,ComponentPad*%
%ADD12O,1.950000X1.700000*%
%TD*%
%TA.AperFunction,ComponentPad*%
%ADD13R,2.400000X2.400000*%
%TD*%
%TA.AperFunction,ComponentPad*%
%ADD14C,2.400000*%
%TD*%
%TA.AperFunction,ComponentPad*%
%ADD15R,1.270000X2.540000*%
%TD*%
%TA.AperFunction,ComponentPad*%
%ADD16R,1.700000X1.700000*%
%TD*%
%TA.AperFunction,ComponentPad*%
%ADD17C,1.700000*%
%TD*%
%TA.AperFunction,ComponentPad*%
%ADD18R,1.500000X1.500000*%
%TD*%
%TA.AperFunction,ComponentPad*%
%ADD19C,1.500000*%
%TD*%
%TA.AperFunction,ComponentPad*%
%ADD20C,3.000000*%
%TD*%
%TA.AperFunction,ComponentPad*%
%ADD21O,1.700000X1.700000*%
%TD*%
%TA.AperFunction,ComponentPad*%
%ADD22R,2.000000X2.000000*%
%TD*%
%TA.AperFunction,ComponentPad*%
%ADD23C,2.000000*%
%TD*%
%TA.AperFunction,ComponentPad*%
%ADD24R,2.500000X3.000000*%
%TD*%
%TA.AperFunction,ViaPad*%
%ADD25C,1.200000*%
%TD*%
%TA.AperFunction,Conductor*%
%ADD26C,0.500000*%
%TD*%
G04 APERTURE END LIST*
D10*
%TO.P,MCU1,1,5V*%
%TO.N,+5V*%
X39125686Y-61924940D03*
%TO.P,MCU1,2,GND*%
%TO.N,GND*%
X41665686Y-61924940D03*
%TO.P,MCU1,3,GPIO27/ADC17/TOUCH7*%
%TO.N,/Alm*%
X44205686Y-61924940D03*
%TO.P,MCU1,4,GPIO26/ADC19/DAC2*%
%TO.N,/Dir*%
X46745686Y-61924940D03*
%TO.P,MCU1,5,GPIO25/ADC18/DAC1*%
%TO.N,/Step*%
X49285686Y-61924940D03*
%TO.P,MCU1,6,GPIO33/ADC5/TOUCH8*%
%TO.N,/PadH2*%
X51825686Y-61924940D03*
%TO.P,MCU1,7,GPIO32/ADC4/TOUCH9*%
%TO.N,/PadH1*%
X54365686Y-61924940D03*
%TO.P,MCU1,8,GPIO39/ADC3/SVN*%
%TO.N,/UIEncA*%
X56905686Y-61924940D03*
%TO.P,MCU1,9,GPIO38*%
%TO.N,/UIEncB*%
X59445686Y-61924940D03*
%TO.P,MCU1,10,GPIO37*%
%TO.N,/EncB*%
X61985686Y-61924940D03*
%TO.P,MCU1,11,GPIO36/ADC0*%
%TO.N,/EncA*%
X64525686Y-61924940D03*
%TO.P,MCU1,12,3V3*%
%TO.N,+3.3V*%
X67065686Y-61924940D03*
%TO.P,MCU1,13,3V3*%
X39125686Y-39064940D03*
%TO.P,MCU1,14,GND*%
%TO.N,GND*%
X41665686Y-39064940D03*
%TO.P,MCU1,15,GND*%
X44205686Y-39064940D03*
%TO.P,MCU1,16,GPIO12/ADC15/TOUCH5*%
%TO.N,/PadV3*%
X46745686Y-39064940D03*
%TO.P,MCU1,17,GPIO13/ADC14/TOUCH4*%
%TO.N,/PadV2*%
X49285686Y-39064940D03*
%TO.P,MCU1,18,GPIO15/ADC13/TOUCH3*%
%TO.N,/PadV1*%
X51825686Y-39064940D03*
%TO.P,MCU1,19,GPIO2/ADC12/TOUCH2*%
%TO.N,/PadH3*%
X54365686Y-39064940D03*
%TO.P,MCU1,20,GPIO17*%
%TO.N,/Ena*%
X56905686Y-39064940D03*
%TO.P,MCU1,21,GPIO22/I2C_SCL*%
%TO.N,/Red*%
X59445686Y-39064940D03*
%TO.P,MCU1,22,GPIO21/I2C_SDA*%
%TO.N,/Green*%
X61985686Y-39064940D03*
%TO.P,MCU1,23,GND*%
%TO.N,GND*%
X64525686Y-39064940D03*
%TO.P,MCU1,24,GND*%
X67065686Y-39064940D03*
%TD*%
D11*
%TO.P,J2,1,Pin_1*%
%TO.N,+5V*%
X107500000Y-79000000D03*
D12*
%TO.P,J2,2,Pin_2*%
%TO.N,GND*%
X107500000Y-76500000D03*
%TO.P,J2,3,Pin_3*%
%TO.N,Net-(J2-Pin_3)*%
X107500000Y-74000000D03*
%TO.P,J2,4,Pin_4*%
%TO.N,Net-(J2-Pin_4)*%
X107500000Y-71500000D03*
%TD*%
D13*
%TO.P,J4,1,Pin_1*%
%TO.N,GND*%
X74420000Y-30000000D03*
D14*
%TO.P,J4,2,Pin_2*%
%TO.N,+5V*%
X79500000Y-30000000D03*
%TD*%
D15*
%TO.P,U1,1,GND*%
%TO.N,GND*%
X22660000Y-58240000D03*
D10*
%TO.P,U1,2,0_RX1_CRX2_CS1*%
%TO.N,unconnected-(U1-0_RX1_CRX2_CS1-Pad2)*%
X25200000Y-58240000D03*
%TO.P,U1,3,1_TX1_CTX2_MISO1*%
%TO.N,unconnected-(U1-1_TX1_CTX2_MISO1-Pad3)*%
X27740000Y-58240000D03*
%TO.P,U1,4,2_OUT2*%
%TO.N,unconnected-(U1-2_OUT2-Pad4)*%
X30280000Y-58240000D03*
%TO.P,U1,5,3_LRCLK2*%
%TO.N,unconnected-(U1-3_LRCLK2-Pad5)*%
X32820000Y-58240000D03*
%TO.P,U1,6,4_BCLK2*%
%TO.N,/PadH1*%
X35360000Y-58240000D03*
%TO.P,U1,7,5_IN2*%
%TO.N,/PadH2*%
X37900000Y-58240000D03*
%TO.P,U1,8,6_OUT1D*%
%TO.N,/PadH3*%
X40440000Y-58240000D03*
%TO.P,U1,9,7_RX2_OUT1A*%
%TO.N,/PadV3*%
X42980000Y-58240000D03*
%TO.P,U1,10,8_TX2_IN1*%
%TO.N,/PadV2*%
X45520000Y-58240000D03*
%TO.P,U1,11,9_OUT1C*%
%TO.N,/PadV1*%
X48060000Y-58240000D03*
%TO.P,U1,12,10_CS_MQSR*%
%TO.N,/Step*%
X50600000Y-58240000D03*
%TO.P,U1,13,11_MOSI_CTX1*%
%TO.N,/Dir*%
X53140000Y-58240000D03*
%TO.P,U1,14,12_MISO_MQSL*%
%TO.N,unconnected-(U1-12_MISO_MQSL-Pad14)*%
X55680000Y-58240000D03*
%TO.P,U1,15,3V3*%
%TO.N,+3.3V*%
X58220000Y-58240000D03*
%TO.P,U1,16,24_A10_TX6_SCL2*%
%TO.N,/UIEncA*%
X60760000Y-58240000D03*
%TO.P,U1,17,25_A11_RX6_SDA2*%
%TO.N,/UIEncB*%
X63300000Y-58240000D03*
%TO.P,U1,18,26_A12_MOSI1*%
%TO.N,unconnected-(U1-26_A12_MOSI1-Pad18)*%
X65840000Y-58240000D03*
%TO.P,U1,19,27_A13_SCK1*%
%TO.N,unconnected-(U1-27_A13_SCK1-Pad19)*%
X68380000Y-58240000D03*
%TO.P,U1,20,28_RX7*%
%TO.N,unconnected-(U1-28_RX7-Pad20)*%
X70920000Y-58240000D03*
%TO.P,U1,21,29_TX7*%
%TO.N,unconnected-(U1-29_TX7-Pad21)*%
X73460000Y-58240000D03*
%TO.P,U1,22,30_CRX3*%
%TO.N,unconnected-(U1-30_CRX3-Pad22)*%
X76000000Y-58240000D03*
%TO.P,U1,23,31_CTX3*%
%TO.N,unconnected-(U1-31_CTX3-Pad23)*%
X78540000Y-58240000D03*
%TO.P,U1,24,32_OUT1B*%
%TO.N,unconnected-(U1-32_OUT1B-Pad24)*%
X81080000Y-58240000D03*
%TO.P,U1,25,33_MCLK2*%
%TO.N,unconnected-(U1-33_MCLK2-Pad25)*%
X81080000Y-43000000D03*
%TO.P,U1,26,34_RX8*%
%TO.N,unconnected-(U1-34_RX8-Pad26)*%
X78540000Y-43000000D03*
%TO.P,U1,27,35_TX8*%
%TO.N,unconnected-(U1-35_TX8-Pad27)*%
X76000000Y-43000000D03*
%TO.P,U1,28,36_CS*%
%TO.N,unconnected-(U1-36_CS-Pad28)*%
X73460000Y-43000000D03*
%TO.P,U1,29,37_CS*%
%TO.N,unconnected-(U1-37_CS-Pad29)*%
X70920000Y-43000000D03*
%TO.P,U1,30,38_CS1_IN1*%
%TO.N,/Ena*%
X68380000Y-43000000D03*
%TO.P,U1,31,39_MISO1_OUT1A*%
%TO.N,/Alm*%
X65840000Y-43000000D03*
%TO.P,U1,32,40_A16*%
%TO.N,/Green*%
X63300000Y-43000000D03*
%TO.P,U1,33,41_A17*%
%TO.N,/Red*%
X60760000Y-43000000D03*
%TO.P,U1,34,GND*%
%TO.N,GND*%
X58220000Y-43000000D03*
%TO.P,U1,35,13_SCK_LED*%
%TO.N,unconnected-(U1-13_SCK_LED-Pad35)*%
X55680000Y-43000000D03*
%TO.P,U1,36,14_A0_TX3_SPDIF_OUT*%
%TO.N,/EncA*%
X53140000Y-43000000D03*
%TO.P,U1,37,15_A1_RX3_SPDIF_IN*%
%TO.N,/EncB*%
X50600000Y-43000000D03*
%TO.P,U1,38,16_A2_RX4_SCL1*%
%TO.N,unconnected-(U1-16_A2_RX4_SCL1-Pad38)*%
X48060000Y-43000000D03*
%TO.P,U1,39,17_A3_TX4_SDA1*%
%TO.N,unconnected-(U1-17_A3_TX4_SDA1-Pad39)*%
X45520000Y-43000000D03*
%TO.P,U1,40,18_A4_SDA*%
%TO.N,/SDA*%
X42980000Y-43000000D03*
%TO.P,U1,41,19_A5_SCL*%
%TO.N,/SCL*%
X40440000Y-43000000D03*
%TO.P,U1,42,20_A6_TX5_LRCLK1*%
%TO.N,unconnected-(U1-20_A6_TX5_LRCLK1-Pad42)*%
X37900000Y-43000000D03*
%TO.P,U1,43,21_A7_RX5_BCLK1*%
%TO.N,unconnected-(U1-21_A7_RX5_BCLK1-Pad43)*%
X35360000Y-43000000D03*
%TO.P,U1,44,22_A8_CTX1*%
%TO.N,unconnected-(U1-22_A8_CTX1-Pad44)*%
X32820000Y-43000000D03*
%TO.P,U1,45,23_A9_CRX1_MCLK1*%
%TO.N,unconnected-(U1-23_A9_CRX1_MCLK1-Pad45)*%
X30280000Y-43000000D03*
%TO.P,U1,46,3V3*%
%TO.N,+3.3V*%
X27740000Y-43000000D03*
%TO.P,U1,47,GND*%
%TO.N,GND*%
X25200000Y-43000000D03*
%TO.P,U1,48,VIN*%
%TO.N,+5V*%
X22660000Y-43000000D03*
%TD*%
D16*
%TO.P,SW8,1,1*%
%TO.N,/PadV1*%
X19500000Y-100250000D03*
D17*
X26000000Y-100250000D03*
%TO.P,SW8,2,2*%
%TO.N,/PadH3*%
X19500000Y-104750000D03*
X26000000Y-104750000D03*
%TD*%
D16*
%TO.P,SW6,1,1*%
%TO.N,/PadV2*%
X35750000Y-87750000D03*
D17*
X42250000Y-87750000D03*
%TO.P,SW6,2,2*%
%TO.N,/PadH2*%
X35750000Y-92250000D03*
X42250000Y-92250000D03*
%TD*%
D16*
%TO.P,SW1,1,1*%
%TO.N,Net-(Q2-D)*%
X73250000Y-72250000D03*
D17*
X79750000Y-72250000D03*
%TO.P,SW1,2,2*%
%TO.N,+5V*%
X73250000Y-76750000D03*
X79750000Y-76750000D03*
%TD*%
D16*
%TO.P,SW3,1,1*%
%TO.N,/PadV2*%
X35750000Y-75250000D03*
D17*
X42250000Y-75250000D03*
%TO.P,SW3,2,2*%
%TO.N,/PadH1*%
X35750000Y-79750000D03*
X42250000Y-79750000D03*
%TD*%
D18*
%TO.P,J1,1*%
%TO.N,Net-(Q5-D)*%
X98200000Y-99445000D03*
D19*
%TO.P,J1,2*%
%TO.N,GND*%
X95660000Y-98175000D03*
%TO.P,J1,3*%
%TO.N,Net-(Q2-D)*%
X98200000Y-96905000D03*
%TO.P,J1,4*%
%TO.N,GND*%
X95660000Y-95635000D03*
%TO.P,J1,5*%
%TO.N,Net-(Q3-D)*%
X98200000Y-94365000D03*
%TO.P,J1,6*%
%TO.N,GND*%
X95660000Y-93095000D03*
%TO.P,J1,7*%
%TO.N,Net-(Q4-D)*%
X98200000Y-91825000D03*
%TO.P,J1,8*%
%TO.N,GND*%
X95660000Y-90555000D03*
D20*
%TO.P,J1,SH*%
X107600000Y-102850000D03*
X107600000Y-87150000D03*
%TD*%
D16*
%TO.P,SW4,1,1*%
%TO.N,/PadV3*%
X52000000Y-75250000D03*
D17*
X58500000Y-75250000D03*
%TO.P,SW4,2,2*%
%TO.N,/PadH1*%
X52000000Y-79750000D03*
X58500000Y-79750000D03*
%TD*%
D16*
%TO.P,J3,1,Pin_1*%
%TO.N,/SDA*%
X58040000Y-33500000D03*
D21*
%TO.P,J3,2,Pin_2*%
%TO.N,/SCL*%
X55500000Y-33500000D03*
%TO.P,J3,3,Pin_3*%
%TO.N,+5V*%
X52960000Y-33500000D03*
%TO.P,J3,4,Pin_4*%
%TO.N,GND*%
X50420000Y-33500000D03*
%TD*%
D16*
%TO.P,SW2,1,1*%
%TO.N,/PadV1*%
X19500000Y-75250000D03*
D17*
X26000000Y-75250000D03*
%TO.P,SW2,2,2*%
%TO.N,/PadH1*%
X19500000Y-79750000D03*
X26000000Y-79750000D03*
%TD*%
D19*
%TO.P,E1,1,RL*%
%TO.N,Net-(E1-RL)*%
X92500000Y-43000000D03*
%TO.P,E1,2,GL*%
%TO.N,Net-(E1-GL)*%
X94500000Y-43000000D03*
%TO.P,E1,3,SW*%
%TO.N,unconnected-(E1-SW-Pad3)*%
X96500000Y-43000000D03*
%TO.P,E1,4,BL*%
%TO.N,unconnected-(E1-BL-Pad4)*%
X98500000Y-43000000D03*
%TO.P,E1,5,5V*%
%TO.N,+5V*%
X100500000Y-43000000D03*
D22*
%TO.P,E1,A,A*%
%TO.N,/UIEncA*%
X94000000Y-57500000D03*
D23*
%TO.P,E1,B,B*%
%TO.N,/UIEncB*%
X99000000Y-57500000D03*
%TO.P,E1,C,C*%
%TO.N,GND*%
X96500000Y-57500000D03*
D24*
%TO.P,E1,MP*%
%TO.N,N/C*%
X90900000Y-50000000D03*
X102100000Y-50000000D03*
%TD*%
D16*
%TO.P,SW7,1,1*%
%TO.N,/PadV3*%
X52000000Y-87750000D03*
D17*
X58500000Y-87750000D03*
%TO.P,SW7,2,2*%
%TO.N,/PadH2*%
X52000000Y-92250000D03*
X58500000Y-92250000D03*
%TD*%
D16*
%TO.P,SW5,1,1*%
%TO.N,/PadV1*%
X19500000Y-87750000D03*
D17*
X26000000Y-87750000D03*
%TO.P,SW5,2,2*%
%TO.N,/PadH2*%
X19500000Y-92250000D03*
X26000000Y-92250000D03*
%TD*%
D16*
%TO.P,SW9,1,1*%
%TO.N,/PadV2*%
X35750000Y-100250000D03*
D17*
X42250000Y-100250000D03*
%TO.P,SW9,2,2*%
%TO.N,/PadH3*%
X35750000Y-104750000D03*
X42250000Y-104750000D03*
%TD*%
D16*
%TO.P,SW10,1,1*%
%TO.N,/PadV3*%
X52000000Y-100250000D03*
D17*
X58500000Y-100250000D03*
%TO.P,SW10,2,2*%
%TO.N,/PadH3*%
X52000000Y-104750000D03*
X58500000Y-104750000D03*
%TD*%
D25*
%TO.N,GND*%
X91525000Y-78000000D03*
X91500000Y-72000000D03*
X89000000Y-35000000D03*
X94500000Y-35000000D03*
%TO.N,+5V*%
X89500000Y-104500000D03*
X86500000Y-84500000D03*
X86500000Y-90000000D03*
X86500000Y-101000000D03*
%TO.N,/Step*%
X72000000Y-85350000D03*
%TO.N,/EncA*%
X61000000Y-52000000D03*
%TO.N,+3.3V*%
X71000000Y-87500000D03*
X71000000Y-99500000D03*
X89175000Y-72500000D03*
X71000000Y-93500000D03*
X96500000Y-62912500D03*
X71000000Y-105500000D03*
%TO.N,/Green*%
X68500000Y-32650000D03*
%TO.N,/Ena*%
X73000000Y-97500000D03*
%TO.N,/EncB*%
X58704898Y-52888530D03*
%TD*%
D26*
%TO.N,/SDA*%
X54540000Y-37000000D02*
X43643336Y-37000000D01*
X43643336Y-37000000D02*
X42980000Y-37663336D01*
X58040000Y-33500000D02*
X54540000Y-37000000D01*
X42980000Y-37663336D02*
X42980000Y-43000000D01*
%TO.N,/SCL*%
X40440000Y-38060000D02*
X40440000Y-43000000D01*
X55500000Y-33500000D02*
X53000000Y-36000000D01*
X42500000Y-36000000D02*
X40440000Y-38060000D01*
X53000000Y-36000000D02*
X42500000Y-36000000D01*
%TO.N,/Step*%
X49285686Y-62635686D02*
X49285686Y-61924940D01*
X72000000Y-85350000D02*
X49285686Y-62635686D01*
%TO.N,/UIEncA*%
X94000000Y-57500000D02*
X94000000Y-58000000D01*
X94000000Y-58000000D02*
X87500000Y-64500000D01*
X59480746Y-64500000D02*
X56905686Y-61924940D01*
X87500000Y-64500000D02*
X59480746Y-64500000D01*
%TO.N,/PadH1*%
X35750000Y-79750000D02*
X42250000Y-79750000D01*
X27300000Y-78450000D02*
X26000000Y-79750000D01*
X52000000Y-79750000D02*
X58500000Y-79750000D01*
X35360000Y-62640000D02*
X27300000Y-70700000D01*
X35360000Y-58240000D02*
X35360000Y-62640000D01*
X27300000Y-70700000D02*
X27300000Y-78450000D01*
X19500000Y-79750000D02*
X26000000Y-79750000D01*
%TO.N,/EncA*%
X64525686Y-61924940D02*
X64525686Y-55525686D01*
X64525686Y-55525686D02*
X61000000Y-52000000D01*
%TO.N,/PadH3*%
X35750000Y-104750000D02*
X42250000Y-104750000D01*
X52000000Y-104750000D02*
X58500000Y-104750000D01*
X19500000Y-104750000D02*
X26000000Y-104750000D01*
%TO.N,/PadV2*%
X42500000Y-75000000D02*
X42250000Y-75250000D01*
X45500000Y-58220000D02*
X45520000Y-58240000D01*
X45500000Y-45189422D02*
X45500000Y-58220000D01*
X35750000Y-100250000D02*
X42250000Y-100250000D01*
X46605000Y-41895000D02*
X46605000Y-44084422D01*
X42250000Y-87750000D02*
X35750000Y-87750000D01*
X49285686Y-39214314D02*
X46605000Y-41895000D01*
X35750000Y-75250000D02*
X42250000Y-75250000D01*
X46605000Y-44084422D02*
X45500000Y-45189422D01*
X49285686Y-39064940D02*
X49285686Y-39214314D01*
%TO.N,/PadV3*%
X51750000Y-75250000D02*
X43000000Y-66500000D01*
X52000000Y-87750000D02*
X58500000Y-87750000D01*
X52000000Y-75250000D02*
X51750000Y-75250000D01*
X43000000Y-66500000D02*
X43000000Y-58260000D01*
X43000000Y-45149422D02*
X43000000Y-58220000D01*
X44084422Y-41915578D02*
X44065000Y-41915578D01*
X44065000Y-41915578D02*
X44065000Y-44084422D01*
X52000000Y-75250000D02*
X58500000Y-75250000D01*
X44065000Y-44084422D02*
X43000000Y-45149422D01*
X43000000Y-58220000D02*
X42980000Y-58240000D01*
X46745686Y-39254314D02*
X44084422Y-41915578D01*
X43000000Y-58260000D02*
X42980000Y-58240000D01*
X52000000Y-100250000D02*
X58500000Y-100250000D01*
X46745686Y-39064940D02*
X46745686Y-39254314D01*
%TO.N,/Green*%
X61985686Y-39064940D02*
X62085060Y-39064940D01*
X62085060Y-39064940D02*
X68500000Y-32650000D01*
%TO.N,/Ena*%
X57000000Y-59379832D02*
X55500000Y-60879832D01*
X55500000Y-67365075D02*
X73050000Y-84915075D01*
X73050000Y-97450000D02*
X73000000Y-97500000D01*
X57000000Y-39159254D02*
X57000000Y-59379832D01*
X55500000Y-60879832D02*
X55500000Y-67365075D01*
X57000000Y-45704711D02*
X65675289Y-45704711D01*
X56905686Y-39064940D02*
X57000000Y-39159254D01*
X73050000Y-84915075D02*
X73050000Y-97450000D01*
X65675289Y-45704711D02*
X68380000Y-43000000D01*
%TO.N,/PadV1*%
X49145000Y-44084422D02*
X48000000Y-45229422D01*
X19500000Y-100250000D02*
X26000000Y-100250000D01*
X26000000Y-87750000D02*
X19500000Y-87750000D01*
X51825686Y-39174314D02*
X49145000Y-41855000D01*
X48000000Y-58180000D02*
X48060000Y-58240000D01*
X49145000Y-41855000D02*
X49145000Y-44084422D01*
X19500000Y-75250000D02*
X26000000Y-75250000D01*
X51825686Y-39064940D02*
X51825686Y-39174314D01*
X48000000Y-45229422D02*
X48000000Y-58180000D01*
%TO.N,/PadH2*%
X19500000Y-92250000D02*
X26000000Y-92250000D01*
X52000000Y-92250000D02*
X58500000Y-92250000D01*
X37900000Y-69100000D02*
X37900000Y-58240000D01*
X34450000Y-72550000D02*
X37900000Y-69100000D01*
X34450000Y-83800000D02*
X34450000Y-72550000D01*
X35750000Y-92250000D02*
X42250000Y-92250000D01*
X26000000Y-92250000D02*
X34450000Y-83800000D01*
%TO.N,/Dir*%
X47075060Y-61924940D02*
X49040000Y-59960000D01*
X51420000Y-59960000D02*
X53140000Y-58240000D01*
X49040000Y-59960000D02*
X51420000Y-59960000D01*
X46745686Y-61924940D02*
X47075060Y-61924940D01*
%TO.N,/UIEncB*%
X83855060Y-63644940D02*
X92500000Y-55000000D01*
X63705686Y-63644940D02*
X83855060Y-63644940D01*
X63705686Y-63794314D02*
X63700000Y-63800000D01*
X92500000Y-55000000D02*
X96500000Y-55000000D01*
X61320746Y-63800000D02*
X59445686Y-61924940D01*
X63705686Y-63644940D02*
X63705686Y-63794314D01*
X96500000Y-55000000D02*
X99000000Y-57500000D01*
X63700000Y-63800000D02*
X61320746Y-63800000D01*
%TO.N,/EncB*%
X61985686Y-55746214D02*
X61985686Y-61924940D01*
X59128002Y-52888530D02*
X61985686Y-55746214D01*
X58704898Y-52888530D02*
X59128002Y-52888530D01*
%TD*%
M02*
