<?xml version="1.0" encoding="UTF-8" standalone="no"?>
<!-- Created with Inkscape (http://www.inkscape.org/) -->

<svg
   width="128"
   height="64"
   viewBox="0 0 33.866666 16.933333"
   version="1.1"
   id="svg1"
   sodipodi:docname="feed.svg"
   inkscape:export-filename="feed.png"
   inkscape:export-xdpi="96"
   inkscape:export-ydpi="96"
   xml:space="preserve"
   inkscape:version="1.4 (86a8ad7, 2024-10-11)"
   xmlns:inkscape="http://www.inkscape.org/namespaces/inkscape"
   xmlns:sodipodi="http://sodipodi.sourceforge.net/DTD/sodipodi-0.dtd"
   xmlns="http://www.w3.org/2000/svg"
   xmlns:svg="http://www.w3.org/2000/svg"><sodipodi:namedview
     id="namedview1"
     pagecolor="#ffffff"
     bordercolor="#000000"
     borderopacity="0.25"
     inkscape:showpageshadow="2"
     inkscape:pageopacity="0.0"
     inkscape:pagecheckerboard="0"
     inkscape:deskcolor="#d1d1d1"
     inkscape:document-units="mm"
     inkscape:zoom="2.5603114"
     inkscape:cx="69.913369"
     inkscape:cy="81.435405"
     inkscape:window-width="2736"
     inkscape:window-height="1718"
     inkscape:window-x="-11"
     inkscape:window-y="-11"
     inkscape:window-maximized="1"
     inkscape:current-layer="layer1" /><defs
     id="defs1"><marker
       style="overflow:visible"
       id="Triangle"
       refX="0"
       refY="0"
       orient="auto-start-reverse"
       inkscape:stockid="Triangle arrow"
       markerWidth="0.7"
       markerHeight="0.7"
       viewBox="0 0 1 1"
       inkscape:isstock="true"
       inkscape:collect="always"
       preserveAspectRatio="xMidYMid"><path
         transform="scale(0.5)"
         style="fill:context-stroke;fill-rule:evenodd;stroke:context-stroke;stroke-width:1pt"
         d="M 5.77,0 -2.88,5 V -5 Z"
         id="path135" /></marker></defs><g
     inkscape:label="Layer 1"
     inkscape:groupmode="layer"
     id="layer1"><path
       style="fill:none;stroke:#000000;stroke-width:1.20186;stroke-linejoin:round;stroke-dasharray:none;stroke-opacity:1;marker-end:url(#Triangle)"
       d="m 0.67210178,9.069401 5.47314122,0.033 4.435131,4.620952 9.106175,-10.7602186 6.13369,6.0732535 4.718227,-0.033011"
       id="path1"
       inkscape:export-filename="feed.png"
       inkscape:export-xdpi="96"
       inkscape:export-ydpi="96" /><g
       style="clip-rule:evenodd;fill-rule:evenodd;image-rendering:optimizeQuality;shape-rendering:geometricPrecision;text-rendering:geometricPrecision"
       id="g1"
       transform="matrix(-0.03742352,-0.03766274,0.03766274,-0.03742352,11.094694,57.967046)"
       inkscape:transform-center-x="-5.3961942"
       inkscape:transform-center-y="-7.9183313"><g
         fill-rule="nonzero"
         id="g4"><path
           fill="#6d6daa"
           d="m 334.179,9.156 168.666,168.665 c 6.102,6.104 9.155,14.138 9.155,22.161 0,8.024 -3.053,16.058 -9.155,22.162 L 460.3,264.687 c -6.102,6.103 -14.135,9.155 -22.16,9.155 -8.024,0 -16.059,-3.052 -22.16,-9.155 L 391.042,239.75 127.892,502.9 c -6.086,6.086 -14.133,9.129 -22.162,9.129 -8.03,0 -16.076,-3.043 -22.162,-9.129 L 9.101,428.433 C 3.049,422.38 0.006,414.341 0,406.285 -0.007,398.238 3.021,390.191 9.101,384.109 l 263.15,-263.15 -24.938,-24.937 c -6.102,-6.103 -9.155,-14.138 -9.155,-22.161 0,-8.025 3.054,-16.058 9.155,-22.161 L 289.858,9.156 C 295.96,3.053 303.994,0 312.018,0 c 8.025,0 16.059,3.053 22.161,9.156 z"
           id="path1-0" /><path
           fill="#f3f5fb"
           d="m 135.869,465.007 -106.608,-71.143 -5.202,5.203 a 10.172,10.172 0 0 0 -2.986,7.218 c 0.001,2.596 1,5.205 2.986,7.19 l 74.466,74.468 c 1.954,1.953 4.572,2.931 7.205,2.931 2.632,0 5.251,-0.978 7.204,-2.931 z M 487.887,192.78 319.222,24.113 c -1.971,-1.971 -4.584,-2.957 -7.204,-2.957 -2.619,0 -5.232,0.986 -7.203,2.957 l -42.543,42.544 c -1.971,1.971 -2.959,4.584 -2.959,7.204 0,2.619 0.986,5.232 2.958,7.203 L 430.937,249.73 c 1.971,1.971 4.584,2.957 7.203,2.957 2.619,0 5.232,-0.986 7.204,-2.957 l 42.543,-42.544 c 1.971,-1.971 2.957,-4.584 2.957,-7.204 0,-2.619 -0.986,-5.232 -2.957,-7.202 z m -111.803,32.013 -88.875,-88.876 -80.105,80.104 106.609,71.143 z m -184.183,6.431 -25.457,25.457 106.608,71.143 25.457,-25.455 z m -40.66,40.66 -25.457,25.456 106.608,71.144 25.456,-25.456 z m -40.66,40.66 -25.456,25.457 106.607,71.144 25.457,-25.456 z M 44.464,378.66 151.072,449.804 176.528,424.348 69.921,353.204 Z"
           id="path2" /><path
           fill="#f3f5fb"
           d="m 135.87,465.008 -53.7,-35.836 -22.802,19.613 39.157,39.158 c 1.953,1.953 4.572,2.93 7.205,2.93 2.632,0 5.251,-0.977 7.205,-2.93 z m -37.103,-50.109 27.788,-23.901 49.974,33.351 -25.458,25.456 z m 44.383,-38.174 27.791,-23.901 46.248,30.864 -25.457,25.458 z m 44.386,-38.174 27.788,-23.901 42.525,28.379 -25.457,25.456 z m 44.385,-38.174 27.788,-23.901 38.8,25.892 -25.457,25.456 z m 44.383,-38.174 73.755,-63.436 26.025,26.026 -62.372,62.372 z m 89.837,-77.267 61.234,-52.668 60.511,60.512 c 1.972,1.97 2.959,4.582 2.959,7.203 0,2.619 -0.987,5.231 -2.959,7.203 l -42.543,42.545 c -1.971,1.971 -4.584,2.956 -7.204,2.956 -2.617,0 -5.23,-0.985 -7.202,-2.956 z"
           id="path3" /></g></g></g></svg>
